<svg width="32" height="32" viewBox="0 0 32 32" fill="none" xmlns="http://www.w3.org/2000/svg">
<path d="M12.76 25.0935C12.5067 25.0935 12.2534 25.0002 12.0534 24.8002L3.96004 16.7068C3.57338 16.3202 3.57338 15.6802 3.96004 15.2935L12.0534 7.20016C12.44 6.81349 13.08 6.81349 13.4667 7.20016C13.8534 7.58682 13.8534 8.22682 13.4667 8.61349L6.08004 16.0002L13.4667 23.3868C13.8534 23.7735 13.8534 24.4135 13.4667 24.8002C13.28 25.0002 13.0134 25.0935 12.76 25.0935Z" fill="#1C1B1B"/>
<path d="M27.3333 17H4.89331C4.34664 17 3.89331 16.5467 3.89331 16C3.89331 15.4533 4.34664 15 4.89331 15H27.3333C27.88 15 28.3333 15.4533 28.3333 16C28.3333 16.5467 27.88 17 27.3333 17Z" fill="#1C1B1B"/>
</svg>
