<svg width="25" height="24" viewBox="0 0 25 24" fill="none" xmlns="http://www.w3.org/2000/svg">
<path d="M20.6 6.94C20.6 7.48 20.31 7.97 19.85 8.22L18.11 9.16L16.63 9.95L13.56 11.61C13.23 11.79 12.87 11.88 12.5 11.88C12.13 11.88 11.77 11.79 11.44 11.61L5.15002 8.22C4.69002 7.97 4.40002 7.48 4.40002 6.94C4.40002 6.4 4.69002 5.91 5.15002 5.66L7.12002 4.6L8.69002 3.75L11.44 2.27C12.1 1.91 12.9 1.91 13.56 2.27L19.85 5.66C20.31 5.91 20.6 6.4 20.6 6.94Z" fill="#21D4B4"/>
<path d="M10.4 12.7901L4.54997 9.87014C4.09997 9.64014 3.57997 9.67014 3.14997 9.93014C2.71997 10.1901 2.46997 10.6501 2.46997 11.1501V16.6801C2.46997 17.6401 2.99997 18.5001 3.85997 18.9301L9.70997 21.8501C9.90997 21.9501 10.13 22.0001 10.35 22.0001C10.61 22.0001 10.87 21.9301 11.1 21.7801C11.53 21.5201 11.78 21.0601 11.78 20.5601V15.0301C11.79 14.0801 11.26 13.2201 10.4 12.7901Z" fill="#21D4B4"/>
<path d="M22.53 11.1496V16.6796C22.53 17.6296 22 18.4896 21.14 18.9196L15.29 21.8496C15.09 21.9496 14.87 21.9996 14.65 21.9996C14.39 21.9996 14.13 21.9296 13.89 21.7796C13.47 21.5196 13.21 21.0596 13.21 20.5596V15.0396C13.21 14.0796 13.74 13.2196 14.6 12.7896L16.75 11.7196L18.25 10.9696L20.45 9.86964C20.9 9.63964 21.42 9.65964 21.85 9.92964C22.27 10.1896 22.53 10.6496 22.53 11.1496Z" fill="#21D4B4"/>
<path d="M18.11 9.16L16.63 9.95L7.12 4.6L8.68999 3.75L17.87 8.93C17.97 8.99 18.05 9.07 18.11 9.16Z" fill="#21D4B4"/>
<path d="M18.25 10.9707V13.2407C18.25 13.6507 17.91 13.9907 17.5 13.9907C17.09 13.9907 16.75 13.6507 16.75 13.2407V11.7207L18.25 10.9707Z" fill="#21D4B4"/>
</svg>
