<svg width="25" height="25" viewBox="0 0 25 25" fill="none" xmlns="http://www.w3.org/2000/svg">
<path d="M19.5 11.25H17.5C15.08 11.25 13.75 9.92 13.75 7.5V5.5C13.75 3.08 15.08 1.75 17.5 1.75H19.5C21.92 1.75 23.25 3.08 23.25 5.5V7.5C23.25 9.92 21.92 11.25 19.5 11.25ZM17.5 3.25C15.92 3.25 15.25 3.92 15.25 5.5V7.5C15.25 9.08 15.92 9.75 17.5 9.75H19.5C21.08 9.75 21.75 9.08 21.75 7.5V5.5C21.75 3.92 21.08 3.25 19.5 3.25H17.5Z" fill="#6F7384"/>
<path d="M7.5 23.25H5.5C3.08 23.25 1.75 21.92 1.75 19.5V17.5C1.75 15.08 3.08 13.75 5.5 13.75H7.5C9.92 13.75 11.25 15.08 11.25 17.5V19.5C11.25 21.92 9.92 23.25 7.5 23.25ZM5.5 15.25C3.92 15.25 3.25 15.92 3.25 17.5V19.5C3.25 21.08 3.92 21.75 5.5 21.75H7.5C9.08 21.75 9.75 21.08 9.75 19.5V17.5C9.75 15.92 9.08 15.25 7.5 15.25H5.5Z" fill="#6F7384"/>
<path d="M6.5 11.25C3.88 11.25 1.75 9.12 1.75 6.5C1.75 3.88 3.88 1.75 6.5 1.75C9.12 1.75 11.25 3.88 11.25 6.5C11.25 9.12 9.12 11.25 6.5 11.25ZM6.5 3.25C4.71 3.25 3.25 4.71 3.25 6.5C3.25 8.29 4.71 9.75 6.5 9.75C8.29 9.75 9.75 8.29 9.75 6.5C9.75 4.71 8.29 3.25 6.5 3.25Z" fill="#6F7384"/>
<path d="M18.5 23.25C15.88 23.25 13.75 21.12 13.75 18.5C13.75 15.88 15.88 13.75 18.5 13.75C21.12 13.75 23.25 15.88 23.25 18.5C23.25 21.12 21.12 23.25 18.5 23.25ZM18.5 15.25C16.71 15.25 15.25 16.71 15.25 18.5C15.25 20.29 16.71 21.75 18.5 21.75C20.29 21.75 21.75 20.29 21.75 18.5C21.75 16.71 20.29 15.25 18.5 15.25Z" fill="#6F7384"/>
</svg>
