<svg width="67" height="40" viewBox="0 0 67 40" fill="none" xmlns="http://www.w3.org/2000/svg">
<path d="M40.75 11.25H38.75C36.33 11.25 35 9.92 35 7.5V5.5C35 3.08 36.33 1.75 38.75 1.75H40.75C43.17 1.75 44.5 3.08 44.5 5.5V7.5C44.5 9.92 43.17 11.25 40.75 11.25ZM38.75 3.25C37.17 3.25 36.5 3.92 36.5 5.5V7.5C36.5 9.08 37.17 9.75 38.75 9.75H40.75C42.33 9.75 43 9.08 43 7.5V5.5C43 3.92 42.33 3.25 40.75 3.25H38.75Z" fill="#6F7384"/>
<path d="M28.75 23.25H26.75C24.33 23.25 23 21.92 23 19.5V17.5C23 15.08 24.33 13.75 26.75 13.75H28.75C31.17 13.75 32.5 15.08 32.5 17.5V19.5C32.5 21.92 31.17 23.25 28.75 23.25ZM26.75 15.25C25.17 15.25 24.5 15.92 24.5 17.5V19.5C24.5 21.08 25.17 21.75 26.75 21.75H28.75C30.33 21.75 31 21.08 31 19.5V17.5C31 15.92 30.33 15.25 28.75 15.25H26.75Z" fill="#6F7384"/>
<path d="M27.75 11.25C25.13 11.25 23 9.12 23 6.5C23 3.88 25.13 1.75 27.75 1.75C30.37 1.75 32.5 3.88 32.5 6.5C32.5 9.12 30.37 11.25 27.75 11.25ZM27.75 3.25C25.96 3.25 24.5 4.71 24.5 6.5C24.5 8.29 25.96 9.75 27.75 9.75C29.54 9.75 31 8.29 31 6.5C31 4.71 29.54 3.25 27.75 3.25Z" fill="#6F7384"/>
<path d="M39.75 23.25C37.13 23.25 35 21.12 35 18.5C35 15.88 37.13 13.75 39.75 13.75C42.37 13.75 44.5 15.88 44.5 18.5C44.5 21.12 42.37 23.25 39.75 23.25ZM39.75 15.25C37.96 15.25 36.5 16.71 36.5 18.5C36.5 20.29 37.96 21.75 39.75 21.75C41.54 21.75 43 20.29 43 18.5C43 16.71 41.54 15.25 39.75 15.25Z" fill="#6F7384"/>
<path d="M5.838 36.644C5.206 36.644 4.618 36.528 4.074 36.296C3.538 36.064 3.07 35.744 2.67 35.336C2.278 34.92 1.97 34.432 1.746 33.872C1.522 33.312 1.41 32.696 1.41 32.024C1.41 31.36 1.518 30.748 1.734 30.188C1.958 29.62 2.27 29.132 2.67 28.724C3.07 28.308 3.538 27.988 4.074 27.764C4.61 27.532 5.198 27.416 5.838 27.416C6.47 27.416 7.034 27.524 7.53 27.74C8.034 27.956 8.458 28.24 8.802 28.592C9.146 28.936 9.394 29.312 9.546 29.72L8.274 30.32C8.082 29.84 7.774 29.452 7.35 29.156C6.934 28.852 6.43 28.7 5.838 28.7C5.246 28.7 4.722 28.84 4.266 29.12C3.81 29.4 3.454 29.788 3.198 30.284C2.95 30.78 2.826 31.36 2.826 32.024C2.826 32.688 2.95 33.272 3.198 33.776C3.454 34.272 3.81 34.66 4.266 34.94C4.722 35.212 5.246 35.348 5.838 35.348C6.43 35.348 6.934 35.2 7.35 34.904C7.774 34.608 8.082 34.22 8.274 33.74L9.546 34.34C9.394 34.74 9.146 35.116 8.802 35.468C8.458 35.82 8.034 36.104 7.53 36.32C7.034 36.536 6.47 36.644 5.838 36.644ZM12.7569 36.644C12.3169 36.644 11.9289 36.568 11.5929 36.416C11.2649 36.256 11.0089 36.04 10.8249 35.768C10.6409 35.488 10.5489 35.16 10.5489 34.784C10.5489 34.432 10.6249 34.116 10.7769 33.836C10.9369 33.556 11.1809 33.32 11.5089 33.128C11.8369 32.936 12.2489 32.8 12.7449 32.72L15.0009 32.348V33.416L13.0089 33.764C12.6489 33.828 12.3849 33.944 12.2169 34.112C12.0489 34.272 11.9649 34.48 11.9649 34.736C11.9649 34.984 12.0569 35.188 12.2409 35.348C12.4329 35.5 12.6769 35.576 12.9729 35.576C13.3409 35.576 13.6609 35.496 13.9329 35.336C14.2129 35.176 14.4289 34.964 14.5809 34.7C14.7329 34.428 14.8089 34.128 14.8089 33.8V32.132C14.8089 31.812 14.6889 31.552 14.4489 31.352C14.2169 31.144 13.9049 31.04 13.5129 31.04C13.1529 31.04 12.8369 31.136 12.5649 31.328C12.3009 31.512 12.1049 31.752 11.9769 32.048L10.8489 31.484C10.9689 31.164 11.1649 30.884 11.4369 30.644C11.7089 30.396 12.0249 30.204 12.3849 30.068C12.7529 29.932 13.1409 29.864 13.5489 29.864C14.0609 29.864 14.5129 29.96 14.9049 30.152C15.3049 30.344 15.6129 30.612 15.8289 30.956C16.0529 31.292 16.1649 31.684 16.1649 32.132V36.5H14.8689V35.324L15.1449 35.36C14.9929 35.624 14.7969 35.852 14.5569 36.044C14.3249 36.236 14.0569 36.384 13.7529 36.488C13.4569 36.592 13.1249 36.644 12.7569 36.644ZM20.5013 36.572C19.8213 36.572 19.2933 36.38 18.9173 35.996C18.5413 35.612 18.3533 35.072 18.3533 34.376V31.232H17.2133V30.008H17.3933C17.6973 30.008 17.9333 29.92 18.1013 29.744C18.2693 29.568 18.3533 29.328 18.3533 29.024V28.52H19.7093V30.008H21.1853V31.232H19.7093V34.316C19.7093 34.54 19.7453 34.732 19.8173 34.892C19.8893 35.044 20.0053 35.164 20.1653 35.252C20.3253 35.332 20.5333 35.372 20.7893 35.372C20.8533 35.372 20.9253 35.368 21.0053 35.36C21.0853 35.352 21.1613 35.344 21.2333 35.336V36.5C21.1213 36.516 20.9973 36.532 20.8613 36.548C20.7253 36.564 20.6053 36.572 20.5013 36.572ZM25.5473 36.644C24.8993 36.644 24.3233 36.496 23.8193 36.2C23.3233 35.896 22.9353 35.488 22.6553 34.976C22.3753 34.456 22.2353 33.876 22.2353 33.236C22.2353 32.58 22.3753 32 22.6553 31.496C22.9433 30.992 23.3273 30.596 23.8073 30.308C24.2873 30.012 24.8313 29.864 25.4393 29.864C25.9273 29.864 26.3633 29.948 26.7473 30.116C27.1313 30.284 27.4553 30.516 27.7193 30.812C27.9833 31.1 28.1833 31.432 28.3193 31.808C28.4633 32.184 28.5353 32.584 28.5353 33.008C28.5353 33.112 28.5313 33.22 28.5233 33.332C28.5153 33.444 28.4993 33.548 28.4753 33.644H23.3033V32.564H27.7073L27.0593 33.056C27.1393 32.664 27.1113 32.316 26.9753 32.012C26.8473 31.7 26.6473 31.456 26.3753 31.28C26.1113 31.096 25.7993 31.004 25.4393 31.004C25.0793 31.004 24.7593 31.096 24.4793 31.28C24.1993 31.456 23.9833 31.712 23.8313 32.048C23.6793 32.376 23.6193 32.776 23.6513 33.248C23.6113 33.688 23.6713 34.072 23.8313 34.4C23.9993 34.728 24.2313 34.984 24.5273 35.168C24.8313 35.352 25.1753 35.444 25.5593 35.444C25.9513 35.444 26.2833 35.356 26.5553 35.18C26.8353 35.004 27.0553 34.776 27.2153 34.496L28.3193 35.036C28.1913 35.34 27.9913 35.616 27.7193 35.864C27.4553 36.104 27.1353 36.296 26.7593 36.44C26.3913 36.576 25.9873 36.644 25.5473 36.644ZM33.0507 39.14C32.5787 39.14 32.1427 39.064 31.7427 38.912C31.3427 38.76 30.9987 38.548 30.7107 38.276C30.4227 38.012 30.2067 37.7 30.0627 37.34L31.3107 36.824C31.4227 37.128 31.6267 37.38 31.9227 37.58C32.2267 37.78 32.5987 37.88 33.0387 37.88C33.3827 37.88 33.6907 37.812 33.9627 37.676C34.2347 37.548 34.4507 37.356 34.6107 37.1C34.7707 36.852 34.8507 36.552 34.8507 36.2V34.736L35.0907 35.012C34.8667 35.428 34.5547 35.744 34.1547 35.96C33.7627 36.176 33.3187 36.284 32.8227 36.284C32.2227 36.284 31.6827 36.144 31.2027 35.864C30.7227 35.584 30.3427 35.2 30.0627 34.712C29.7907 34.224 29.6547 33.676 29.6547 33.068C29.6547 32.452 29.7907 31.904 30.0627 31.424C30.3427 30.944 30.7187 30.564 31.1907 30.284C31.6627 30.004 32.2027 29.864 32.8107 29.864C33.3067 29.864 33.7467 29.972 34.1307 30.188C34.5227 30.396 34.8427 30.7 35.0907 31.1L34.9107 31.436V30.008H36.1947V36.2C36.1947 36.76 36.0587 37.26 35.7867 37.7C35.5227 38.148 35.1547 38.5 34.6827 38.756C34.2107 39.012 33.6667 39.14 33.0507 39.14ZM32.9787 35.024C33.3387 35.024 33.6587 34.94 33.9387 34.772C34.2187 34.596 34.4387 34.364 34.5987 34.076C34.7667 33.78 34.8507 33.448 34.8507 33.08C34.8507 32.712 34.7667 32.38 34.5987 32.084C34.4307 31.788 34.2067 31.556 33.9267 31.388C33.6467 31.212 33.3307 31.124 32.9787 31.124C32.6107 31.124 32.2827 31.212 31.9947 31.388C31.7067 31.556 31.4787 31.788 31.3107 32.084C31.1507 32.372 31.0707 32.704 31.0707 33.08C31.0707 33.44 31.1507 33.768 31.3107 34.064C31.4787 34.36 31.7067 34.596 31.9947 34.772C32.2827 34.94 32.6107 35.024 32.9787 35.024ZM40.974 36.644C40.35 36.644 39.778 36.496 39.258 36.2C38.746 35.904 38.338 35.5 38.034 34.988C37.73 34.476 37.578 33.896 37.578 33.248C37.578 32.592 37.73 32.012 38.034 31.508C38.338 30.996 38.746 30.596 39.258 30.308C39.77 30.012 40.342 29.864 40.974 29.864C41.614 29.864 42.186 30.012 42.69 30.308C43.202 30.596 43.606 30.996 43.902 31.508C44.206 32.012 44.358 32.592 44.358 33.248C44.358 33.904 44.206 34.488 43.902 35C43.598 35.512 43.19 35.916 42.678 36.212C42.166 36.5 41.598 36.644 40.974 36.644ZM40.974 35.384C41.358 35.384 41.698 35.292 41.994 35.108C42.29 34.924 42.522 34.672 42.69 34.352C42.866 34.024 42.954 33.656 42.954 33.248C42.954 32.84 42.866 32.476 42.69 32.156C42.522 31.836 42.29 31.584 41.994 31.4C41.698 31.216 41.358 31.124 40.974 31.124C40.598 31.124 40.258 31.216 39.954 31.4C39.658 31.584 39.422 31.836 39.246 32.156C39.078 32.476 38.994 32.84 38.994 33.248C38.994 33.656 39.078 34.024 39.246 34.352C39.422 34.672 39.658 34.924 39.954 35.108C40.258 35.292 40.598 35.384 40.974 35.384ZM45.7418 36.5V30.008H47.0378V31.316L46.9178 31.124C47.0618 30.7 47.2938 30.396 47.6138 30.212C47.9338 30.02 48.3178 29.924 48.7658 29.924H49.1618V31.16H48.5978C48.1498 31.16 47.7858 31.3 47.5058 31.58C47.2338 31.852 47.0978 32.244 47.0978 32.756V36.5H45.7418ZM50.1495 36.5V30.008H51.5055V36.5H50.1495ZM50.1495 29.12V27.56H51.5055V29.12H50.1495ZM56.1989 36.644C55.5509 36.644 54.9749 36.496 54.4709 36.2C53.9749 35.896 53.5869 35.488 53.3069 34.976C53.0269 34.456 52.8869 33.876 52.8869 33.236C52.8869 32.58 53.0269 32 53.3069 31.496C53.5949 30.992 53.9789 30.596 54.4589 30.308C54.9389 30.012 55.4829 29.864 56.0909 29.864C56.5789 29.864 57.0149 29.948 57.3989 30.116C57.7829 30.284 58.1069 30.516 58.3709 30.812C58.6349 31.1 58.8349 31.432 58.9709 31.808C59.1149 32.184 59.1869 32.584 59.1869 33.008C59.1869 33.112 59.1829 33.22 59.1749 33.332C59.1669 33.444 59.1509 33.548 59.1269 33.644H53.9549V32.564H58.3589L57.7109 33.056C57.7909 32.664 57.7629 32.316 57.6269 32.012C57.4989 31.7 57.2989 31.456 57.0269 31.28C56.7629 31.096 56.4509 31.004 56.0909 31.004C55.7309 31.004 55.4109 31.096 55.1309 31.28C54.8509 31.456 54.6349 31.712 54.4829 32.048C54.3309 32.376 54.2709 32.776 54.3029 33.248C54.2629 33.688 54.3229 34.072 54.4829 34.4C54.6509 34.728 54.8829 34.984 55.1789 35.168C55.4829 35.352 55.8269 35.444 56.2109 35.444C56.6029 35.444 56.9349 35.356 57.2069 35.18C57.4869 35.004 57.7069 34.776 57.8669 34.496L58.9709 35.036C58.8429 35.34 58.6429 35.616 58.3709 35.864C58.1069 36.104 57.7869 36.296 57.4109 36.44C57.0429 36.576 56.6389 36.644 56.1989 36.644ZM62.9703 36.644C62.3063 36.644 61.7223 36.48 61.2183 36.152C60.7223 35.824 60.3743 35.384 60.1743 34.832L61.2183 34.34C61.3943 34.708 61.6343 35 61.9383 35.216C62.2503 35.432 62.5943 35.54 62.9703 35.54C63.2903 35.54 63.5503 35.468 63.7503 35.324C63.9503 35.18 64.0503 34.984 64.0503 34.736C64.0503 34.576 64.0063 34.448 63.9183 34.352C63.8303 34.248 63.7183 34.164 63.5823 34.1C63.4543 34.036 63.3223 33.988 63.1863 33.956L62.1663 33.668C61.6063 33.508 61.1863 33.268 60.9063 32.948C60.6343 32.62 60.4983 32.24 60.4983 31.808C60.4983 31.416 60.5983 31.076 60.7983 30.788C60.9983 30.492 61.2743 30.264 61.6263 30.104C61.9783 29.944 62.3743 29.864 62.8143 29.864C63.4063 29.864 63.9343 30.012 64.3983 30.308C64.8623 30.596 65.1903 31 65.3823 31.52L64.3383 32.012C64.2103 31.7 64.0063 31.452 63.7263 31.268C63.4543 31.084 63.1463 30.992 62.8023 30.992C62.5063 30.992 62.2703 31.064 62.0943 31.208C61.9183 31.344 61.8303 31.524 61.8303 31.748C61.8303 31.9 61.8703 32.028 61.9503 32.132C62.0303 32.228 62.1343 32.308 62.2623 32.372C62.3903 32.428 62.5223 32.476 62.6583 32.516L63.7143 32.828C64.2503 32.98 64.6623 33.22 64.9503 33.548C65.2383 33.868 65.3823 34.252 65.3823 34.7C65.3823 35.084 65.2783 35.424 65.0703 35.72C64.8703 36.008 64.5903 36.236 64.2303 36.404C63.8703 36.564 63.4503 36.644 62.9703 36.644Z" fill="#6F7384"/>
</svg>
