<svg width="25" height="24" viewBox="0 0 25 24" fill="none" xmlns="http://www.w3.org/2000/svg">
<path d="M11.31 16.9506C11.12 16.9506 10.93 16.8806 10.78 16.7306L9.28 15.2306C8.99 14.9406 8.99 14.4606 9.28 14.1706C9.57 13.8806 10.05 13.8806 10.34 14.1706L11.31 15.1406L14.78 11.6706C15.07 11.3806 15.55 11.3806 15.84 11.6706C16.13 11.9606 16.13 12.4406 15.84 12.7306L11.84 16.7306C11.7 16.8806 11.5 16.9506 11.31 16.9506Z" fill="#1C1B1B"/>
<path d="M14.5 6.75H10.5C9.54 6.75 7.75 6.75 7.75 4C7.75 1.25 9.54 1.25 10.5 1.25H14.5C15.46 1.25 17.25 1.25 17.25 4C17.25 4.96 17.25 6.75 14.5 6.75ZM10.5 2.75C9.51 2.75 9.25 2.75 9.25 4C9.25 5.25 9.51 5.25 10.5 5.25H14.5C15.75 5.25 15.75 4.99 15.75 4C15.75 2.75 15.49 2.75 14.5 2.75H10.5Z" fill="#1C1B1B"/>
<path d="M15.5 22.7504H9.5C3.88 22.7504 2.75 20.1704 2.75 16.0004V10.0004C2.75 5.44042 4.4 3.49042 8.46 3.28042C8.87 3.26042 9.23 3.57042 9.25 3.99042C9.27 4.41042 8.95 4.75042 8.54 4.77042C5.7 4.93042 4.25 5.78042 4.25 10.0004V16.0004C4.25 19.7004 4.98 21.2504 9.5 21.2504H15.5C20.02 21.2504 20.75 19.7004 20.75 16.0004V10.0004C20.75 5.78042 19.3 4.93042 16.46 4.77042C16.05 4.75042 15.73 4.39042 15.75 3.98042C15.77 3.57042 16.12 3.25042 16.54 3.27042C20.6 3.49042 22.25 5.44042 22.25 9.99042V15.9904C22.25 20.1704 21.12 22.7504 15.5 22.7504Z" fill="#1C1B1B"/>
</svg>
