<svg width="66" height="26" viewBox="0 0 66 26" fill="none" xmlns="http://www.w3.org/2000/svg">
<path d="M30.0169 11.9342V19.6782H27.5582V0.550228H34.0756C34.8538 0.533251 35.6276 0.67088 36.3522 0.955142C37.0768 1.2394 37.7378 1.66465 38.2969 2.20623C39.4409 3.23556 40.0836 4.70756 40.0596 6.24356C40.0764 7.00764 39.9275 7.76629 39.6232 8.46736C39.319 9.16844 38.8665 9.79532 38.2969 10.3049C37.1556 11.3929 35.7476 11.9369 34.0756 11.9342H30.0169ZM30.0169 2.90489V9.58489H34.1369C35.0516 9.61156 35.9316 9.25423 36.5689 8.59556C37.8596 7.34223 37.8916 5.27556 36.6329 3.98489L36.5689 3.92089C36.2585 3.5891 35.8812 3.32698 35.462 3.15183C35.0427 2.97669 34.5911 2.89252 34.1369 2.90489H30.0169ZM45.7236 6.16356C47.5422 6.16356 48.9742 6.64889 50.0249 7.61956C51.0756 8.59023 51.6009 9.92356 51.6009 11.6116V19.6809H49.2516V17.8622H49.1449C48.1262 19.3582 46.7716 20.1076 45.0836 20.1076C43.6409 20.1076 42.4356 19.6809 41.4649 18.8249C40.9995 18.4322 40.6273 17.9408 40.3755 17.3864C40.1236 16.832 39.9984 16.2284 40.0089 15.6196C40.0089 14.2649 40.5209 13.1876 41.5449 12.3876C42.5689 11.5876 43.9342 11.1849 45.6462 11.1849C47.1049 11.1849 48.3076 11.4516 49.2516 11.9849V11.4222C49.2546 11.0072 49.1649 10.5967 48.9892 10.2207C48.8134 9.84477 48.5559 9.51275 48.2356 9.24889C47.5855 8.66202 46.7379 8.34204 45.8622 8.35289C44.4916 8.35289 43.4036 8.93156 42.6036 10.0889L40.4409 8.72623C41.6276 7.01689 43.3902 6.16356 45.7236 6.16356ZM42.5422 15.6729C42.541 15.9854 42.6141 16.2937 42.7556 16.5723C42.897 16.851 43.1026 17.092 43.3556 17.2756C43.8996 17.7022 44.5742 17.9316 45.2649 17.9156C46.3023 17.9129 47.2966 17.4997 48.0302 16.7662C48.8436 15.9982 49.2516 15.1022 49.2516 14.0676C48.4836 13.4569 47.4169 13.1502 46.0462 13.1502C45.0489 13.1502 44.2142 13.3902 43.5476 13.8729C42.8782 14.3662 42.5422 14.9609 42.5422 15.6729ZM65.0942 6.59023L56.8889 25.4516H54.3529L57.3982 18.8516L51.9982 6.59023H54.6702L58.5716 15.9929H58.6249L62.4196 6.59023H65.0942Z" fill="#5F6368"/>
<path d="M22.4488 12.4788C22.4488 11.7295 22.3875 10.9828 22.2595 10.2441H11.8942V14.4761H17.8302C17.709 15.1521 17.4521 15.7965 17.0748 16.3703C16.6976 16.9441 16.208 17.4355 15.6355 17.8148V20.5641H19.1795C21.2542 18.6548 22.4488 15.8255 22.4488 12.4788Z" fill="#4285F4"/>
<path d="M11.8945 23.22C14.8598 23.22 17.3585 22.2467 19.1798 20.5667L15.6358 17.8174C14.6491 18.4867 13.3798 18.868 11.8945 18.868C9.0278 18.868 6.59581 16.9347 5.72381 14.332H2.07581V17.164C2.99006 18.9845 4.39246 20.515 6.12635 21.5844C7.86023 22.6538 9.85731 23.2201 11.8945 23.22Z" fill="#34A853"/>
<path d="M5.72651 14.3323C5.26522 12.9675 5.26522 11.489 5.72651 10.1243V7.29492H2.07585C1.30653 8.8266 0.905884 10.5169 0.905884 12.2309C0.905884 13.9449 1.30653 15.6352 2.07585 17.1669L5.72651 14.3323Z" fill="#FBBC04"/>
<path d="M11.8945 5.5909C13.4616 5.56585 14.9758 6.15773 16.1105 7.2389L19.2491 4.1029C17.2587 2.23544 14.6236 1.20932 11.8945 1.2389C9.85731 1.2388 7.86023 1.8051 6.12635 2.87453C4.39246 3.94396 2.99006 5.47441 2.07581 7.2949L5.72647 10.1269C6.59581 7.52157 9.0278 5.5909 11.8945 5.5909Z" fill="#EA4335"/>
</svg>
