<svg width="12" height="12" viewBox="0 0 12 12" fill="none" xmlns="http://www.w3.org/2000/svg">
<path d="M6 10.8248C5.845 10.8248 5.695 10.8048 5.57 10.7598C3.66 10.1048 0.625 7.7798 0.625 4.3448C0.625 2.5948 2.04 1.1748 3.78 1.1748C4.625 1.1748 5.415 1.5048 6 2.0948C6.585 1.5048 7.375 1.1748 8.22 1.1748C9.96 1.1748 11.375 2.5998 11.375 4.3448C11.375 7.7848 8.34 10.1048 6.43 10.7598C6.305 10.8048 6.155 10.8248 6 10.8248ZM3.78 1.9248C2.455 1.9248 1.375 3.0098 1.375 4.3448C1.375 7.7598 4.66 9.6598 5.815 10.0548C5.905 10.0848 6.1 10.0848 6.19 10.0548C7.34 9.6598 10.63 7.7648 10.63 4.3448C10.63 3.0098 9.55 1.9248 8.225 1.9248C7.465 1.9248 6.76 2.2798 6.305 2.8948C6.165 3.0848 5.845 3.0848 5.705 2.8948C5.24 2.2748 4.54 1.9248 3.78 1.9248Z" fill="white"/>
</svg>
