<svg width="24" height="25" viewBox="0 0 24 25" fill="none" xmlns="http://www.w3.org/2000/svg">
<path d="M20.04 7.31969L14.28 3.28969C12.71 2.18969 10.3 2.24969 8.78999 3.41969L3.77999 7.32969C2.77999 8.10969 1.98999 9.70969 1.98999 10.9697V17.8697C1.98999 20.4197 4.05999 22.4997 6.60999 22.4997H17.39C19.94 22.4997 22.01 20.4297 22.01 17.8797V11.0997C22.01 9.74969 21.14 8.08969 20.04 7.31969ZM12.75 18.4997C12.75 18.9097 12.41 19.2497 12 19.2497C11.59 19.2497 11.25 18.9097 11.25 18.4997V15.4997C11.25 15.0897 11.59 14.7497 12 14.7497C12.41 14.7497 12.75 15.0897 12.75 15.4997V18.4997Z" fill="#21D4B4"/>
</svg>
