<svg width="36" height="40" viewBox="0 0 36 40" fill="none" xmlns="http://www.w3.org/2000/svg">
<path d="M23.79 23.25H12.21C9.47 23.25 7.25 21.02 7.25 18.28V10.87C7.25 9.50997 8.09 7.79997 9.17 6.95997L14.56 2.75997C16.18 1.49997 18.77 1.43997 20.45 2.61997L26.63 6.94997C27.82 7.77997 28.75 9.55997 28.75 11.01V18.29C28.75 21.02 26.53 23.25 23.79 23.25ZM15.48 3.93997L10.09 8.13997C9.38 8.69997 8.75 9.96997 8.75 10.87V18.28C8.75 20.19 10.3 21.75 12.21 21.75H23.79C25.7 21.75 27.25 20.2 27.25 18.29V11.01C27.25 10.05 26.56 8.71997 25.77 8.17997L19.59 3.84997C18.45 3.04997 16.57 3.08997 15.48 3.93997Z" fill="#6F7384"/>
<path d="M18 19.25C17.59 19.25 17.25 18.91 17.25 18.5V15.5C17.25 15.09 17.59 14.75 18 14.75C18.41 14.75 18.75 15.09 18.75 15.5V18.5C18.75 18.91 18.41 19.25 18 19.25Z" fill="#6F7384"/>
<path d="M0.924 36.5V27.56H2.34V31.496H6.48V27.56H7.884V36.5H6.48V32.756H2.34V36.5H0.924ZM12.7965 36.644C12.1725 36.644 11.6005 36.496 11.0805 36.2C10.5685 35.904 10.1605 35.5 9.8565 34.988C9.5525 34.476 9.4005 33.896 9.4005 33.248C9.4005 32.592 9.5525 32.012 9.8565 31.508C10.1605 30.996 10.5685 30.596 11.0805 30.308C11.5925 30.012 12.1645 29.864 12.7965 29.864C13.4365 29.864 14.0085 30.012 14.5125 30.308C15.0245 30.596 15.4285 30.996 15.7245 31.508C16.0285 32.012 16.1805 32.592 16.1805 33.248C16.1805 33.904 16.0285 34.488 15.7245 35C15.4205 35.512 15.0125 35.916 14.5005 36.212C13.9885 36.5 13.4205 36.644 12.7965 36.644ZM12.7965 35.384C13.1805 35.384 13.5205 35.292 13.8165 35.108C14.1125 34.924 14.3445 34.672 14.5125 34.352C14.6885 34.024 14.7765 33.656 14.7765 33.248C14.7765 32.84 14.6885 32.476 14.5125 32.156C14.3445 31.836 14.1125 31.584 13.8165 31.4C13.5205 31.216 13.1805 31.124 12.7965 31.124C12.4205 31.124 12.0805 31.216 11.7765 31.4C11.4805 31.584 11.2445 31.836 11.0685 32.156C10.9005 32.476 10.8165 32.84 10.8165 33.248C10.8165 33.656 10.9005 34.024 11.0685 34.352C11.2445 34.672 11.4805 34.924 11.7765 35.108C12.0805 35.292 12.4205 35.384 12.7965 35.384ZM17.5643 36.5V30.008H18.8603V31.412L18.6923 31.196C18.8283 30.756 19.0763 30.424 19.4363 30.2C19.7963 29.976 20.2083 29.864 20.6723 29.864C21.1923 29.864 21.6523 30.004 22.0523 30.284C22.4603 30.556 22.7323 30.92 22.8683 31.376L22.4843 31.412C22.6763 30.892 22.9683 30.504 23.3603 30.248C23.7603 29.992 24.2163 29.864 24.7283 29.864C25.1763 29.864 25.5803 29.968 25.9403 30.176C26.3083 30.384 26.6003 30.672 26.8163 31.04C27.0323 31.408 27.1403 31.828 27.1403 32.3V36.5H25.7843V32.672C25.7843 32.344 25.7243 32.068 25.6043 31.844C25.4923 31.612 25.3323 31.436 25.1243 31.316C24.9243 31.188 24.6883 31.124 24.4163 31.124C24.1443 31.124 23.9043 31.188 23.6963 31.316C23.4883 31.436 23.3243 31.612 23.2043 31.844C23.0843 32.076 23.0243 32.352 23.0243 32.672V36.5H21.6803V32.672C21.6803 32.344 21.6203 32.068 21.5003 31.844C21.3883 31.612 21.2283 31.436 21.0203 31.316C20.8203 31.188 20.5803 31.124 20.3003 31.124C20.0283 31.124 19.7883 31.188 19.5803 31.316C19.3723 31.436 19.2083 31.612 19.0883 31.844C18.9763 32.076 18.9203 32.352 18.9203 32.672V36.5H17.5643ZM31.6997 36.644C31.0517 36.644 30.4757 36.496 29.9717 36.2C29.4757 35.896 29.0877 35.488 28.8077 34.976C28.5277 34.456 28.3877 33.876 28.3877 33.236C28.3877 32.58 28.5277 32 28.8077 31.496C29.0957 30.992 29.4797 30.596 29.9597 30.308C30.4397 30.012 30.9837 29.864 31.5917 29.864C32.0797 29.864 32.5157 29.948 32.8997 30.116C33.2837 30.284 33.6077 30.516 33.8717 30.812C34.1357 31.1 34.3357 31.432 34.4717 31.808C34.6157 32.184 34.6877 32.584 34.6877 33.008C34.6877 33.112 34.6837 33.22 34.6757 33.332C34.6677 33.444 34.6517 33.548 34.6277 33.644H29.4557V32.564H33.8597L33.2117 33.056C33.2917 32.664 33.2637 32.316 33.1277 32.012C32.9997 31.7 32.7997 31.456 32.5277 31.28C32.2637 31.096 31.9517 31.004 31.5917 31.004C31.2317 31.004 30.9117 31.096 30.6317 31.28C30.3517 31.456 30.1357 31.712 29.9837 32.048C29.8317 32.376 29.7717 32.776 29.8037 33.248C29.7637 33.688 29.8237 34.072 29.9837 34.4C30.1517 34.728 30.3837 34.984 30.6797 35.168C30.9837 35.352 31.3277 35.444 31.7117 35.444C32.1037 35.444 32.4357 35.356 32.7077 35.18C32.9877 35.004 33.2077 34.776 33.3677 34.496L34.4717 35.036C34.3437 35.34 34.1437 35.616 33.8717 35.864C33.6077 36.104 33.2877 36.296 32.9117 36.44C32.5437 36.576 32.1397 36.644 31.6997 36.644Z" fill="#6F7384"/>
</svg>
