<svg width="32" height="32" viewBox="0 0 32 32" fill="none" xmlns="http://www.w3.org/2000/svg">
<g filter="url(#filter0_d_187_9901)">
<path d="M12.76 25.0935C12.5067 25.0935 12.2533 25.0002 12.0533 24.8002L3.96 16.7068C3.57333 16.3202 3.57333 15.6802 3.96 15.2935L12.0533 7.20016C12.44 6.81349 13.08 6.81349 13.4667 7.20016C13.8533 7.58682 13.8533 8.22682 13.4667 8.61349L6.08 16.0002L13.4667 23.3868C13.8533 23.7735 13.8533 24.4135 13.4667 24.8002C13.28 25.0002 13.0133 25.0935 12.76 25.0935Z" fill="#1C1B1B"/>
<path d="M27.3333 17H4.89333C4.34667 17 3.89333 16.5467 3.89333 16C3.89333 15.4533 4.34667 15 4.89333 15H27.3333C27.88 15 28.3333 15.4533 28.3333 16C28.3333 16.5467 27.88 17 27.3333 17Z" fill="#1C1B1B"/>
</g>
<defs>
<filter id="filter0_d_187_9901" x="-2" y="0" width="36" height="36" filterUnits="userSpaceOnUse" color-interpolation-filters="sRGB">
<feFlood flood-opacity="0" result="BackgroundImageFix"/>
<feColorMatrix in="SourceAlpha" type="matrix" values="0 0 0 0 0 0 0 0 0 0 0 0 0 0 0 0 0 0 127 0" result="hardAlpha"/>
<feOffset dy="2"/>
<feGaussianBlur stdDeviation="1"/>
<feComposite in2="hardAlpha" operator="out"/>
<feColorMatrix type="matrix" values="0 0 0 0 0 0 0 0 0 0 0 0 0 0 0 0 0 0 0.25 0"/>
<feBlend mode="normal" in2="BackgroundImageFix" result="effect1_dropShadow_187_9901"/>
<feBlend mode="normal" in="SourceGraphic" in2="effect1_dropShadow_187_9901" result="shape"/>
</filter>
</defs>
</svg>
