<svg width="45" height="40" viewBox="0 0 45 40" fill="none" xmlns="http://www.w3.org/2000/svg">
<path d="M28.69 18.25H18.04C17.05 18.25 16.1 17.83 15.43 17.1C14.76 16.37 14.42 15.39 14.5 14.4L15.33 4.44C15.36 4.13 15.25 3.83001 15.04 3.60001C14.83 3.37001 14.54 3.25 14.23 3.25H12.5C12.09 3.25 11.75 2.91 11.75 2.5C11.75 2.09 12.09 1.75 12.5 1.75H14.24C14.97 1.75 15.66 2.06 16.15 2.59C16.42 2.89 16.62 3.24 16.73 3.63H29.22C30.23 3.63 31.16 4.03 31.84 4.75C32.51 5.48 32.85 6.43 32.77 7.44L32.23 14.94C32.12 16.77 30.52 18.25 28.69 18.25ZM16.78 5.12L16 14.52C15.95 15.1 16.14 15.65 16.53 16.08C16.92 16.51 17.46 16.74 18.04 16.74H28.69C29.73 16.74 30.67 15.86 30.75 14.82L31.29 7.32001C31.33 6.73001 31.14 6.17001 30.75 5.76001C30.36 5.34001 29.82 5.10999 29.23 5.10999H16.78V5.12Z" fill="#6F7384"/>
<path d="M26.75 23.25C25.65 23.25 24.75 22.35 24.75 21.25C24.75 20.15 25.65 19.25 26.75 19.25C27.85 19.25 28.75 20.15 28.75 21.25C28.75 22.35 27.85 23.25 26.75 23.25ZM26.75 20.75C26.47 20.75 26.25 20.97 26.25 21.25C26.25 21.53 26.47 21.75 26.75 21.75C27.03 21.75 27.25 21.53 27.25 21.25C27.25 20.97 27.03 20.75 26.75 20.75Z" fill="#6F7384"/>
<path d="M18.75 23.25C17.65 23.25 16.75 22.35 16.75 21.25C16.75 20.15 17.65 19.25 18.75 19.25C19.85 19.25 20.75 20.15 20.75 21.25C20.75 22.35 19.85 23.25 18.75 23.25ZM18.75 20.75C18.47 20.75 18.25 20.97 18.25 21.25C18.25 21.53 18.47 21.75 18.75 21.75C19.03 21.75 19.25 21.53 19.25 21.25C19.25 20.97 19.03 20.75 18.75 20.75Z" fill="#6F7384"/>
<path d="M31.5 9.25H19.5C19.09 9.25 18.75 8.91 18.75 8.5C18.75 8.09 19.09 7.75 19.5 7.75H31.5C31.91 7.75 32.25 8.09 32.25 8.5C32.25 8.91 31.91 9.25 31.5 9.25Z" fill="#6F7384"/>
<path d="M1.556 36.5V27.56H2.396L5.756 32.432H5.288L8.636 27.56H9.476V36.5H8.516V28.856L8.828 28.976L5.54 33.74H5.492L2.216 28.976L2.516 28.856V36.5H1.556ZM11.6473 39.14C11.5193 39.14 11.3873 39.128 11.2513 39.104C11.1233 39.088 10.9953 39.056 10.8673 39.008V38.168C10.9473 38.176 11.0473 38.188 11.1673 38.204C11.2953 38.228 11.4233 38.24 11.5513 38.24C11.9433 38.24 12.2433 38.156 12.4513 37.988C12.6593 37.828 12.8633 37.516 13.0633 37.052L13.4713 36.092L13.4473 36.884L10.7233 30.068H11.6953L13.9273 35.696H13.6753L15.8953 30.068H16.8913L13.9513 37.316C13.8233 37.628 13.6593 37.924 13.4593 38.204C13.2673 38.484 13.0233 38.708 12.7273 38.876C12.4313 39.052 12.0713 39.14 11.6473 39.14ZM24.3199 36.644C23.6879 36.644 23.1079 36.532 22.5799 36.308C22.0519 36.076 21.5919 35.756 21.1999 35.348C20.8159 34.932 20.5159 34.444 20.2999 33.884C20.0839 33.324 19.9759 32.708 19.9759 32.036C19.9759 31.364 20.0839 30.748 20.2999 30.188C20.5159 29.628 20.8159 29.14 21.1999 28.724C21.5919 28.308 22.0519 27.988 22.5799 27.764C23.1079 27.532 23.6879 27.416 24.3199 27.416C24.9279 27.416 25.4719 27.524 25.9519 27.74C26.4399 27.956 26.8479 28.236 27.1759 28.58C27.5119 28.916 27.7519 29.272 27.8959 29.648L26.9959 30.044C26.7719 29.524 26.4279 29.108 25.9639 28.796C25.5079 28.476 24.9599 28.316 24.3199 28.316C23.6639 28.316 23.0799 28.472 22.5679 28.784C22.0559 29.096 21.6559 29.532 21.3679 30.092C21.0799 30.644 20.9359 31.292 20.9359 32.036C20.9359 32.772 21.0799 33.42 21.3679 33.98C21.6559 34.54 22.0559 34.976 22.5679 35.288C23.0799 35.592 23.6639 35.744 24.3199 35.744C24.9599 35.744 25.5079 35.588 25.9639 35.276C26.4279 34.964 26.7719 34.548 26.9959 34.028L27.8959 34.424C27.7519 34.792 27.5119 35.148 27.1759 35.492C26.8479 35.828 26.4399 36.104 25.9519 36.32C25.4719 36.536 24.9279 36.644 24.3199 36.644ZM31.2857 36.644C30.8777 36.644 30.5137 36.568 30.1937 36.416C29.8737 36.256 29.6217 36.04 29.4377 35.768C29.2537 35.496 29.1617 35.184 29.1617 34.832C29.1617 34.496 29.2337 34.192 29.3777 33.92C29.5217 33.64 29.7457 33.404 30.0497 33.212C30.3537 33.02 30.7417 32.884 31.2137 32.804L33.7337 32.384V33.2L31.4297 33.584C30.9657 33.664 30.6297 33.812 30.4217 34.028C30.2217 34.244 30.1217 34.5 30.1217 34.796C30.1217 35.084 30.2337 35.328 30.4577 35.528C30.6897 35.728 30.9857 35.828 31.3457 35.828C31.7857 35.828 32.1697 35.736 32.4977 35.552C32.8257 35.36 33.0817 35.104 33.2657 34.784C33.4497 34.464 33.5417 34.108 33.5417 33.716V32.084C33.5417 31.7 33.4017 31.388 33.1217 31.148C32.8417 30.908 32.4777 30.788 32.0297 30.788C31.6377 30.788 31.2937 30.888 30.9977 31.088C30.7017 31.28 30.4817 31.532 30.3377 31.844L29.5217 31.4C29.6417 31.128 29.8297 30.88 30.0857 30.656C30.3497 30.432 30.6497 30.256 30.9857 30.128C31.3217 29.992 31.6697 29.924 32.0297 29.924C32.5017 29.924 32.9177 30.016 33.2777 30.2C33.6457 30.384 33.9297 30.64 34.1297 30.968C34.3377 31.288 34.4417 31.66 34.4417 32.084V36.5H33.5417V35.216L33.6737 35.348C33.5617 35.588 33.3857 35.808 33.1457 36.008C32.9137 36.2 32.6377 36.356 32.3177 36.476C32.0057 36.588 31.6617 36.644 31.2857 36.644ZM36.3529 36.5V30.068H37.2529V31.124L37.1329 30.968C37.2849 30.664 37.5129 30.424 37.8169 30.248C38.1289 30.072 38.5049 29.984 38.9449 29.984H39.3529V30.884H38.7889C38.3249 30.884 37.9529 31.028 37.6729 31.316C37.3929 31.604 37.2529 32.012 37.2529 32.54V36.5H36.3529ZM42.9276 36.572C42.3516 36.572 41.9076 36.404 41.5956 36.068C41.2836 35.732 41.1276 35.252 41.1276 34.628V30.968H39.9396V30.068H40.2396C40.5116 30.068 40.7276 29.98 40.8876 29.804C41.0476 29.62 41.1276 29.392 41.1276 29.12V28.58H42.0276V30.068H43.4436V30.968H42.0276V34.628C42.0276 34.844 42.0596 35.036 42.1236 35.204C42.1876 35.364 42.2956 35.492 42.4476 35.588C42.6076 35.684 42.8196 35.732 43.0836 35.732C43.1476 35.732 43.2236 35.728 43.3116 35.72C43.3996 35.712 43.4756 35.704 43.5396 35.696V36.5C43.4436 36.524 43.3356 36.54 43.2156 36.548C43.0956 36.564 42.9996 36.572 42.9276 36.572Z" fill="#6F7384"/>
</svg>
