<svg width="28" height="24" viewBox="0 0 28 24" fill="none" xmlns="http://www.w3.org/2000/svg">
<g clip-path="url(#clip0_603_7509)">
<path fill-rule="evenodd" clip-rule="evenodd" d="M-1.74997 0H29.75V24H-1.74997V0Z" fill="#0C590B"/>
<path fill-rule="evenodd" clip-rule="evenodd" d="M-1.74997 0H6.14636V24H-1.74997V0Z" fill="white"/>
<path fill-rule="evenodd" clip-rule="evenodd" d="M18.7046 10.565L17.4264 10.2577L16.7542 11.5377L16.6149 10.0533L15.3419 9.71819L16.5342 9.10816L16.4197 7.62109L17.2958 8.72838L18.4979 8.14441L17.8472 9.43881L18.7046 10.565Z" fill="white"/>
<path fill-rule="evenodd" clip-rule="evenodd" d="M19.1867 14.347C18.052 17.2045 15.0737 18.4527 12.5663 17.1253C10.0586 15.7975 8.9661 12.3942 10.1279 9.5282C10.7205 8.06645 11.6902 7.06192 13.059 6.51367C12.9015 6.66583 12.7457 6.82366 12.575 7.02498C10.8068 9.1105 10.8527 12.4434 12.6775 14.464C14.5023 16.4848 17.4186 16.4323 19.1866 14.3468L19.1867 14.347Z" fill="white"/>
</g>
<defs>
<clipPath id="clip0_603_7509">
<rect width="28" height="24" fill="white"/>
</clipPath>
</defs>
</svg>
