<svg width="24" height="25" viewBox="0 0 24 25" fill="none" xmlns="http://www.w3.org/2000/svg">
<path d="M12 2.5C9.38 2.5 7.25 4.63 7.25 7.25C7.25 9.82 9.26 11.9 11.88 11.99C11.96 11.98 12.04 11.98 12.1 11.99C12.12 11.99 12.13 11.99 12.15 11.99C12.16 11.99 12.16 11.99 12.17 11.99C14.73 11.9 16.74 9.82 16.75 7.25C16.75 4.63 14.62 2.5 12 2.5Z" fill="#21D4B4"/>
<path d="M17.08 14.6509C14.29 12.7909 9.73999 12.7909 6.92999 14.6509C5.65999 15.5009 4.95999 16.6509 4.95999 17.8809C4.95999 19.1109 5.65999 20.2509 6.91999 21.0909C8.31999 22.0309 10.16 22.5009 12 22.5009C13.84 22.5009 15.68 22.0309 17.08 21.0909C18.34 20.2409 19.04 19.1009 19.04 17.8609C19.03 16.6309 18.34 15.4909 17.08 14.6509Z" fill="#21D4B4"/>
</svg>
