<svg width="96" height="32" viewBox="0 0 96 32" fill="none" xmlns="http://www.w3.org/2000/svg">
<rect x="0.5" y="0.5" width="95" height="31" rx="7.5" stroke="#F4F5FD"/>
<path d="M22 16.75H10C9.59 16.75 9.25 16.41 9.25 16C9.25 15.59 9.59 15.25 10 15.25H22C22.41 15.25 22.75 15.59 22.75 16C22.75 16.41 22.41 16.75 22 16.75Z" fill="#C0C0C0"/>
<path d="M47.7933 23V12.44H45.5373V11.08H49.3773V23H47.7933Z" fill="#C0C0C0"/>
<path d="M86 16.75H74C73.59 16.75 73.25 16.41 73.25 16C73.25 15.59 73.59 15.25 74 15.25H86C86.41 15.25 86.75 15.59 86.75 16C86.75 16.41 86.41 16.75 86 16.75Z" fill="#C0C0C0"/>
<path d="M80 22.75C79.59 22.75 79.25 22.41 79.25 22V10C79.25 9.59 79.59 9.25 80 9.25C80.41 9.25 80.75 9.59 80.75 10V22C80.75 22.41 80.41 22.75 80 22.75Z" fill="#C0C0C0"/>
</svg>
