<svg width="104" height="32" viewBox="0 0 104 32" fill="none" xmlns="http://www.w3.org/2000/svg">
<path fill-rule="evenodd" clip-rule="evenodd" d="M17.7566 19.3569C19.2034 17.9287 21.5491 17.9287 22.996 19.3569L29.4793 25.7569C30.9261 27.1851 30.9261 29.5006 29.4793 30.9288C28.0325 32.357 25.6868 32.357 24.24 30.9288L17.7566 24.5288C16.3098 23.1006 16.3098 20.7851 17.7566 19.3569Z" fill="#21D4B4"/>
<path d="M29.6382 14.6286C29.6382 22.7077 23.0035 29.2571 14.8191 29.2571C6.63474 29.2571 0 22.7077 0 14.6286C0 6.54943 6.63474 0 14.8191 0C23.0035 0 29.6382 6.54943 29.6382 14.6286ZM9.60228 14.6286C9.60228 17.4727 11.9379 19.7783 14.8191 19.7783C17.7003 19.7783 20.0359 17.4727 20.0359 14.6286C20.0359 11.7844 17.7003 9.47881 14.8191 9.47881C11.9379 9.47881 9.60228 11.7844 9.60228 14.6286Z" fill="#21D4B4"/>
<path d="M35.0193 21.9892C34.2841 21.9892 33.6547 21.8428 33.1311 21.5501C32.6186 21.2469 32.2287 20.8287 31.9613 20.2955C31.694 19.7623 31.5603 19.1402 31.5603 18.4292V13.2383H34.0668V18.241C34.0668 18.5651 34.1337 18.8527 34.2674 19.1036C34.4122 19.3441 34.6127 19.5322 34.8689 19.6682C35.1252 19.8041 35.4148 19.872 35.7379 19.872C36.0721 19.872 36.3617 19.8041 36.6068 19.6682C36.863 19.5322 37.058 19.3441 37.1916 19.1036C37.3365 18.8527 37.4089 18.5651 37.4089 18.241V13.2383H39.9154V21.801H37.576V20.1073L37.7097 20.4837C37.498 20.996 37.1527 21.3776 36.6736 21.6285C36.2057 21.869 35.6543 21.9892 35.0193 21.9892Z" fill="#1C1B1B"/>
<path d="M41.831 21.801V13.2383H44.3375V21.801H41.831ZM41.831 12.4698V10.1174H44.3375V12.4698H41.831Z" fill="#1C1B1B"/>
<path d="M50.7336 21.9892C49.8201 21.9892 48.9957 21.7958 48.2605 21.4089C47.5364 21.0116 46.9571 20.4732 46.5226 19.7936C46.0993 19.114 45.8876 18.3508 45.8876 17.5039C45.8876 16.6571 46.0993 15.8991 46.5226 15.23C46.9459 14.5504 47.5252 14.0172 48.2605 13.6303C48.9957 13.2435 49.8201 13.0501 50.7336 13.0501C51.4131 13.0501 52.0426 13.1598 52.6218 13.3794C53.2011 13.599 53.6969 13.9074 54.1091 14.3047C54.5212 14.6915 54.8165 15.1515 54.9947 15.6848L52.8224 16.563C52.6664 16.1343 52.399 15.7945 52.0203 15.5436C51.6527 15.2927 51.2238 15.1672 50.7336 15.1672C50.2991 15.1672 49.9092 15.2665 49.5639 15.4652C49.2297 15.6638 48.9623 15.9409 48.7618 16.2964C48.5724 16.6519 48.4777 17.0596 48.4777 17.5196C48.4777 17.9797 48.5724 18.3874 48.7618 18.7429C48.9623 19.0984 49.2297 19.3754 49.5639 19.5741C49.9092 19.7727 50.2991 19.872 50.7336 19.872C51.2349 19.872 51.6694 19.7466 52.037 19.4957C52.4046 19.2447 52.6664 18.9049 52.8224 18.4763L54.9947 19.3702C54.8276 19.872 54.5379 20.3216 54.1258 20.7189C53.7136 21.1162 53.2178 21.4299 52.6386 21.6599C52.0593 21.8794 51.4243 21.9892 50.7336 21.9892Z" fill="#1C1B1B"/>
<path d="M56.5542 21.801V9.9292H59.0608V17.5353L58.125 17.253L62.1522 13.2383H65.2435L61.9349 16.6884L65.2268 21.801H62.3861L59.6289 17.4569L61.0827 17.1119L58.2921 19.9661L59.0608 18.6017V21.801H56.5542Z" fill="#1C1B1B"/>
<path d="M66.6127 21.801V10.1174H69.1193L73.7814 15.92H72.6117L77.1402 10.1174H79.6467V21.801H77.0566V12.7991L78.0927 13.0187L73.2968 18.8213H72.9626L68.3339 13.0187L69.2028 12.7991V21.801H66.6127Z" fill="#1C1B1B"/>
<path d="M84.5781 21.9892C83.9208 21.9892 83.3526 21.8899 82.8736 21.6912C82.3946 21.4926 82.027 21.2103 81.7707 20.8444C81.5145 20.468 81.3864 20.0236 81.3864 19.5113C81.3864 19.0304 81.5034 18.607 81.7373 18.241C81.9713 17.8646 82.3277 17.551 82.8068 17.3001C83.2969 17.0491 83.9041 16.8714 84.6282 16.7669L87.4188 16.3434V18.0685L85.0794 18.4606C84.7229 18.5233 84.4499 18.6331 84.2606 18.7899C84.0712 18.9363 83.9765 19.1506 83.9765 19.4329C83.9765 19.6943 84.0823 19.8982 84.294 20.0445C84.5056 20.1909 84.7674 20.2641 85.0794 20.2641C85.4915 20.2641 85.8536 20.1805 86.1655 20.0132C86.4775 19.8459 86.717 19.6211 86.8841 19.3388C87.0623 19.0461 87.1514 18.7272 87.1514 18.3822V16.1552C87.1514 15.8311 87.0122 15.5593 86.7337 15.3397C86.4663 15.1202 86.0987 15.0104 85.6308 15.0104C85.1852 15.0104 84.7897 15.1254 84.4444 15.3554C84.1102 15.5854 83.8651 15.8886 83.7091 16.265L81.7039 15.3711C81.8821 14.8902 82.1662 14.4772 82.5561 14.1322C82.946 13.7871 83.4139 13.5205 83.9598 13.3323C84.5056 13.1442 85.1016 13.0501 85.7478 13.0501C86.5164 13.0501 87.196 13.1807 87.7864 13.4421C88.3768 13.7035 88.8336 14.0694 89.1567 14.5399C89.4909 14.9999 89.658 15.5384 89.658 16.1552V21.801H87.3185V20.4209L87.8867 20.3268C87.6193 20.7032 87.3241 21.0169 87.001 21.2678C86.678 21.5083 86.3159 21.686 85.9149 21.801C85.5138 21.9265 85.0682 21.9892 84.5781 21.9892Z" fill="#1C1B1B"/>
<path d="M91.5798 21.801V13.2383H93.9192V15.2927L93.7521 14.9947C93.9526 14.2733 94.2813 13.7871 94.738 13.5362C95.2059 13.2748 95.7573 13.1442 96.3923 13.1442H96.927V15.1829H96.1417C95.5289 15.1829 95.0332 15.3606 94.6544 15.7161C94.2757 16.0611 94.0863 16.5525 94.0863 17.1903V21.801H91.5798Z" fill="#1C1B1B"/>
<path d="M102.83 21.8951C101.727 21.8951 100.87 21.618 100.257 21.0639C99.6554 20.4993 99.3546 19.7152 99.3546 18.7115V15.277H97.8173V13.2383H97.9008C98.3687 13.2383 98.7252 13.1285 98.9703 12.9089C99.2265 12.6894 99.3546 12.36 99.3546 11.9209V11.2936H101.861V13.2383H104V15.277H101.861V18.5547C101.861 18.8474 101.917 19.0931 102.028 19.2918C102.14 19.48 102.312 19.6211 102.546 19.7152C102.78 19.8093 103.07 19.8564 103.415 19.8564C103.493 19.8564 103.582 19.8511 103.683 19.8407C103.783 19.8302 103.889 19.8198 104 19.8093V21.801C103.833 21.8219 103.644 21.8428 103.432 21.8637C103.22 21.8846 103.02 21.8951 102.83 21.8951Z" fill="#1C1B1B"/>
</svg>
