<svg width="264" height="76" viewBox="0 0 264 76" fill="none" xmlns="http://www.w3.org/2000/svg">
<path fill-rule="evenodd" clip-rule="evenodd" d="M41.4834 45.9726C44.8635 42.5806 50.3436 42.5806 53.7237 45.9726L68.8703 61.1726C72.2503 64.5645 72.2503 70.064 68.8703 73.456C65.4902 76.848 60.01 76.848 56.63 73.456L41.4834 58.256C38.1033 54.864 38.1033 49.3645 41.4834 45.9726Z" fill="#21D4B4"/>
<path d="M69.2415 34.7429C69.2415 53.9308 53.7413 69.4857 34.6208 69.4857C15.5002 69.4857 0 53.9308 0 34.7429C0 15.5549 15.5002 0 34.6208 0C53.7413 0 69.2415 15.5549 69.2415 34.7429ZM22.4331 34.7429C22.4331 41.4977 27.8897 46.9735 34.6208 46.9735C41.3518 46.9735 46.8085 41.4977 46.8085 34.7429C46.8085 27.988 41.3518 22.5122 34.6208 22.5122C27.8897 22.5122 22.4331 27.988 22.4331 34.7429Z" fill="#21D4B4"/>
<path d="M84.4315 56.9786C82.5273 56.9786 80.8973 56.5733 79.5413 55.7626C78.2141 54.923 77.2044 53.7649 76.512 52.2883C75.8195 50.8117 75.4733 49.0891 75.4733 47.1203V32.7455H81.9647V46.5992C81.9647 47.4967 82.1378 48.2929 82.484 48.9877C82.8591 49.6537 83.3784 50.1748 84.042 50.5512C84.7055 50.9276 85.4557 51.1157 86.2923 51.1157C87.1578 51.1157 87.908 50.9276 88.5427 50.5512C89.2062 50.1748 89.7111 49.6537 90.0573 48.9877C90.4324 48.2929 90.6199 47.4967 90.6199 46.5992V32.7455H97.1113V56.4575H91.0527V51.7672L91.3989 52.8095C90.8507 54.2281 89.9564 55.2849 88.7158 55.9797C87.504 56.6457 86.0759 56.9786 84.4315 56.9786Z" fill="#1C1B1B"/>
<path d="M102.072 56.4575V32.7455H108.564V56.4575H102.072ZM102.072 30.6175V24.1032H108.564V30.6175H102.072Z" fill="#1C1B1B"/>
<path d="M125.128 56.9786C122.762 56.9786 120.627 56.443 118.723 55.3717C116.848 54.2716 115.348 52.7805 114.223 50.8986C113.126 49.0167 112.578 46.9032 112.578 44.558C112.578 42.2129 113.126 40.1138 114.223 38.2609C115.319 36.379 116.819 34.9024 118.723 33.8312C120.627 32.7599 122.762 32.2243 125.128 32.2243C126.888 32.2243 128.518 32.5283 130.018 33.1363C131.519 33.7443 132.802 34.5984 133.87 35.6986C134.937 36.7698 135.702 38.0437 136.163 39.5203L130.538 41.9523C130.134 40.7653 129.441 39.8243 128.46 39.1295C127.508 38.4346 126.398 38.0872 125.128 38.0872C124.003 38.0872 122.993 38.3622 122.099 38.9123C121.233 39.4624 120.541 40.2297 120.022 41.214C119.531 42.1984 119.286 43.3276 119.286 44.6015C119.286 45.8754 119.531 47.0045 120.022 47.9889C120.541 48.9733 121.233 49.7405 122.099 50.2906C122.993 50.8407 124.003 51.1157 125.128 51.1157C126.426 51.1157 127.552 50.7683 128.504 50.0735C129.456 49.3786 130.134 48.4377 130.538 47.2506L136.163 49.726C135.731 51.1157 134.981 52.3607 133.913 53.4609C132.846 54.5611 131.562 55.4297 130.062 56.0666C128.561 56.6746 126.917 56.9786 125.128 56.9786Z" fill="#1C1B1B"/>
<path d="M140.202 56.4575V23.582H146.694V44.6449L144.27 43.8632L154.7 32.7455H162.706L154.137 42.2997L162.663 56.4575H155.306L148.165 44.4277L151.93 43.4723L144.703 51.3763L146.694 47.598V56.4575H140.202Z" fill="#1C1B1B"/>
<path d="M166.252 56.4575V24.1032H172.743L184.817 40.1717H181.788L193.516 24.1032H200.007V56.4575H193.299V31.5295L195.982 32.1375L183.562 48.206H182.697L170.709 32.1375L172.96 31.5295V56.4575H166.252Z" fill="#1C1B1B"/>
<path d="M212.778 56.9786C211.076 56.9786 209.605 56.7036 208.364 56.1535C207.123 55.6034 206.171 54.8217 205.508 53.8083C204.844 52.766 204.512 51.5356 204.512 50.1169C204.512 48.7851 204.815 47.6125 205.421 46.5992C206.027 45.5569 206.95 44.6883 208.191 43.9935C209.46 43.2986 211.033 42.8064 212.908 42.5169L220.135 41.3443V46.1215L214.076 47.2072C213.153 47.3809 212.446 47.6849 211.956 48.1192C211.465 48.5245 211.22 49.118 211.22 49.8997C211.22 50.6236 211.494 51.1881 212.042 51.5935C212.591 51.9988 213.269 52.2015 214.076 52.2015C215.144 52.2015 216.082 51.9698 216.889 51.5066C217.697 51.0434 218.317 50.4209 218.75 49.6392C219.212 48.8285 219.443 47.9455 219.443 46.99V40.8232C219.443 39.9257 219.082 39.1729 218.361 38.5649C217.668 37.9569 216.716 37.6529 215.504 37.6529C214.35 37.6529 213.326 37.9714 212.432 38.6083C211.566 39.2453 210.932 40.0849 210.528 41.1272L205.335 38.6517C205.796 37.3199 206.532 36.1763 207.542 35.2209C208.551 34.2655 209.763 33.5272 211.177 33.006C212.591 32.4849 214.134 32.2243 215.807 32.2243C217.798 32.2243 219.558 32.5862 221.087 33.31C222.616 34.0338 223.799 35.0472 224.636 36.35C225.501 37.6239 225.934 39.115 225.934 40.8232V56.4575H219.875V52.6357L221.347 52.3752C220.654 53.4175 219.89 54.286 219.053 54.9809C218.216 55.6468 217.279 56.139 216.24 56.4575C215.202 56.8049 214.048 56.9786 212.778 56.9786Z" fill="#1C1B1B"/>
<path d="M230.911 56.4575V32.7455H236.97V38.4346L236.537 37.6095C237.056 35.6117 237.907 34.2655 239.09 33.5706C240.302 32.8468 241.73 32.4849 243.375 32.4849H244.759V38.1306H242.725C241.139 38.1306 239.855 38.6228 238.874 39.6072C237.893 40.5626 237.402 41.9234 237.402 43.6895V56.4575H230.911Z" fill="#1C1B1B"/>
<path d="M260.048 56.718C257.191 56.718 254.97 55.9508 253.383 54.4163C251.825 52.8529 251.046 50.6815 251.046 47.902V38.3912H247.065V32.7455H247.281C248.493 32.7455 249.416 32.4415 250.051 31.8335C250.714 31.2255 251.046 30.3135 251.046 29.0975V27.3603H257.538V32.7455H263.077V38.3912H257.538V47.4677C257.538 48.2784 257.682 48.9588 257.97 49.5089C258.259 50.03 258.706 50.4209 259.312 50.6815C259.918 50.942 260.668 51.0723 261.562 51.0723C261.764 51.0723 261.995 51.0578 262.255 51.0289C262.514 50.9999 262.788 50.971 263.077 50.942V56.4575C262.644 56.5154 262.154 56.5733 261.606 56.6312C261.057 56.6891 260.538 56.718 260.048 56.718Z" fill="#1C1B1B"/>
</svg>
