<svg width="32" height="32" viewBox="0 0 32 32" fill="none" xmlns="http://www.w3.org/2000/svg">
<path d="M15.3334 29.0003C7.80008 29.0003 1.66675 22.867 1.66675 15.3337C1.66675 7.80033 7.80008 1.66699 15.3334 1.66699C22.8667 1.66699 29.0001 7.80033 29.0001 15.3337C29.0001 22.867 22.8667 29.0003 15.3334 29.0003ZM15.3334 3.66699C8.89342 3.66699 3.66675 8.90699 3.66675 15.3337C3.66675 21.7603 8.89342 27.0003 15.3334 27.0003C21.7734 27.0003 27.0001 21.7603 27.0001 15.3337C27.0001 8.90699 21.7734 3.66699 15.3334 3.66699Z" fill="#1C1B1B"/>
<path d="M29.3333 30.3333C29.0799 30.3333 28.8266 30.2399 28.6266 30.0399L25.9599 27.3733C25.5733 26.9866 25.5733 26.3466 25.9599 25.9599C26.3466 25.5733 26.9866 25.5733 27.3733 25.9599L30.0399 28.6266C30.4266 29.0133 30.4266 29.6533 30.0399 30.0399C29.8399 30.2399 29.5866 30.3333 29.3333 30.3333Z" fill="#1C1B1B"/>
</svg>
