<svg width="32" height="32" viewBox="0 0 32 32" fill="none" xmlns="http://www.w3.org/2000/svg">
<path d="M15.3333 29.0003C7.79996 29.0003 1.66663 22.867 1.66663 15.3337C1.66663 7.80033 7.79996 1.66699 15.3333 1.66699C22.8666 1.66699 29 7.80033 29 15.3337C29 22.867 22.8666 29.0003 15.3333 29.0003ZM15.3333 3.66699C8.89329 3.66699 3.66663 8.90699 3.66663 15.3337C3.66663 21.7603 8.89329 27.0003 15.3333 27.0003C21.7733 27.0003 27 21.7603 27 15.3337C27 8.90699 21.7733 3.66699 15.3333 3.66699Z" fill="#1C1B1B"/>
<path d="M29.3334 30.3333C29.08 30.3333 28.8267 30.2399 28.6267 30.0399L25.96 27.3733C25.5734 26.9866 25.5734 26.3466 25.96 25.9599C26.3467 25.5733 26.9867 25.5733 27.3734 25.9599L30.04 28.6266C30.4267 29.0133 30.4267 29.6533 30.04 30.0399C29.84 30.2399 29.5867 30.3333 29.3334 30.3333Z" fill="#1C1B1B"/>
</svg>
