<svg width="32" height="32" viewBox="0 0 32 32" fill="none" xmlns="http://www.w3.org/2000/svg">
<path d="M29.3333 9.66699H21.3333C20.7866 9.66699 20.3333 9.21366 20.3333 8.66699C20.3333 8.12033 20.7866 7.66699 21.3333 7.66699H29.3333C29.8799 7.66699 30.3333 8.12033 30.3333 8.66699C30.3333 9.21366 29.8799 9.66699 29.3333 9.66699Z" fill="#1C1B1B"/>
<path d="M8.00008 9.66699H2.66675C2.12008 9.66699 1.66675 9.21366 1.66675 8.66699C1.66675 8.12033 2.12008 7.66699 2.66675 7.66699H8.00008C8.54675 7.66699 9.00008 8.12033 9.00008 8.66699C9.00008 9.21366 8.54675 9.66699 8.00008 9.66699Z" fill="#1C1B1B"/>
<path d="M13.3334 14.3333C10.2134 14.3333 7.66675 11.7867 7.66675 8.66667C7.66675 5.54667 10.2134 3 13.3334 3C16.4534 3 19.0001 5.54667 19.0001 8.66667C19.0001 11.7867 16.4534 14.3333 13.3334 14.3333ZM13.3334 5C11.3067 5 9.66675 6.64 9.66675 8.66667C9.66675 10.6933 11.3067 12.3333 13.3334 12.3333C15.3601 12.3333 17.0001 10.6933 17.0001 8.66667C17.0001 6.64 15.3601 5 13.3334 5Z" fill="#1C1B1B"/>
<path d="M29.3333 24.333H24C23.4533 24.333 23 23.8797 23 23.333C23 22.7863 23.4533 22.333 24 22.333H29.3333C29.88 22.333 30.3333 22.7863 30.3333 23.333C30.3333 23.8797 29.88 24.333 29.3333 24.333Z" fill="#1C1B1B"/>
<path d="M10.6667 24.333H2.66675C2.12008 24.333 1.66675 23.8797 1.66675 23.333C1.66675 22.7863 2.12008 22.333 2.66675 22.333H10.6667C11.2134 22.333 11.6667 22.7863 11.6667 23.333C11.6667 23.8797 11.2134 24.333 10.6667 24.333Z" fill="#1C1B1B"/>
<path d="M18.6667 29.0003C15.5467 29.0003 13 26.4537 13 23.3337C13 20.2137 15.5467 17.667 18.6667 17.667C21.7867 17.667 24.3333 20.2137 24.3333 23.3337C24.3333 26.4537 21.7867 29.0003 18.6667 29.0003ZM18.6667 19.667C16.64 19.667 15 21.307 15 23.3337C15 25.3603 16.64 27.0003 18.6667 27.0003C20.6933 27.0003 22.3333 25.3603 22.3333 23.3337C22.3333 21.307 20.6933 19.667 18.6667 19.667Z" fill="#1C1B1B"/>
</svg>
