<svg width="25" height="25" viewBox="0 0 25 25" fill="none" xmlns="http://www.w3.org/2000/svg">
<path d="M18.69 18.25H8.03999C7.04999 18.25 6.09999 17.83 5.42999 17.1C4.75999 16.37 4.42 15.39 4.5 14.4L5.33 4.44C5.36 4.13 5.24999 3.83001 5.03999 3.60001C4.82999 3.37001 4.54 3.25 4.23 3.25H2.5C2.09 3.25 1.75 2.91 1.75 2.5C1.75 2.09 2.09 1.75 2.5 1.75H4.24001C4.97001 1.75 5.65999 2.06 6.14999 2.59C6.41999 2.89 6.62 3.24 6.73 3.63H19.22C20.23 3.63 21.16 4.03 21.84 4.75C22.51 5.48 22.85 6.43 22.77 7.44L22.23 14.94C22.12 16.77 20.52 18.25 18.69 18.25ZM6.78 5.12L6 14.52C5.95 15.1 6.14 15.65 6.53 16.08C6.92 16.51 7.45999 16.74 8.03999 16.74H18.69C19.73 16.74 20.67 15.86 20.75 14.82L21.29 7.32001C21.33 6.73001 21.14 6.17001 20.75 5.76001C20.36 5.34001 19.82 5.10999 19.23 5.10999H6.78V5.12Z" fill="#6F7384"/>
<path d="M16.75 23.25C15.65 23.25 14.75 22.35 14.75 21.25C14.75 20.15 15.65 19.25 16.75 19.25C17.85 19.25 18.75 20.15 18.75 21.25C18.75 22.35 17.85 23.25 16.75 23.25ZM16.75 20.75C16.47 20.75 16.25 20.97 16.25 21.25C16.25 21.53 16.47 21.75 16.75 21.75C17.03 21.75 17.25 21.53 17.25 21.25C17.25 20.97 17.03 20.75 16.75 20.75Z" fill="#6F7384"/>
<path d="M8.75 23.25C7.65 23.25 6.75 22.35 6.75 21.25C6.75 20.15 7.65 19.25 8.75 19.25C9.85 19.25 10.75 20.15 10.75 21.25C10.75 22.35 9.85 23.25 8.75 23.25ZM8.75 20.75C8.47 20.75 8.25 20.97 8.25 21.25C8.25 21.53 8.47 21.75 8.75 21.75C9.03 21.75 9.25 21.53 9.25 21.25C9.25 20.97 9.03 20.75 8.75 20.75Z" fill="#6F7384"/>
<path d="M21.5 9.25H9.5C9.09 9.25 8.75 8.91 8.75 8.5C8.75 8.09 9.09 7.75 9.5 7.75H21.5C21.91 7.75 22.25 8.09 22.25 8.5C22.25 8.91 21.91 9.25 21.5 9.25Z" fill="#6F7384"/>
</svg>
