<svg width="83" height="15" viewBox="0 0 83 15" fill="none" xmlns="http://www.w3.org/2000/svg">
<path d="M4.746 11.668C4.08333 11.668 3.47667 11.5467 2.926 11.304C2.37533 11.052 1.90867 10.7113 1.526 10.282C1.14333 9.85267 0.868 9.372 0.7 8.84L1.89 8.35C2.142 9.022 2.51533 9.54 3.01 9.904C3.514 10.2587 4.102 10.436 4.774 10.436C5.18467 10.436 5.544 10.3707 5.852 10.24C6.16 10.1093 6.398 9.92733 6.566 9.694C6.74333 9.45133 6.832 9.17133 6.832 8.854C6.832 8.41533 6.706 8.07 6.454 7.818C6.21133 7.55667 5.852 7.36067 5.376 7.23L3.458 6.642C2.702 6.40867 2.12333 6.04 1.722 5.536C1.32067 5.032 1.12 4.45333 1.12 3.8C1.12 3.23067 1.25533 2.73133 1.526 2.302C1.806 1.86333 2.18867 1.52267 2.674 1.28C3.16867 1.028 3.72867 0.902 4.354 0.902C4.97933 0.902 5.544 1.014 6.048 1.238C6.56133 1.462 6.99533 1.76533 7.35 2.148C7.70467 2.52133 7.966 2.95067 8.134 3.436L6.958 3.926C6.734 3.338 6.398 2.89467 5.95 2.596C5.502 2.288 4.97467 2.134 4.368 2.134C3.99467 2.134 3.66333 2.19933 3.374 2.33C3.094 2.45133 2.87467 2.63333 2.716 2.876C2.56667 3.10933 2.492 3.38933 2.492 3.716C2.492 4.09867 2.61333 4.43933 2.856 4.738C3.09867 5.03667 3.46733 5.26533 3.962 5.424L5.712 5.942C6.53333 6.194 7.154 6.55333 7.574 7.02C7.994 7.48667 8.204 8.06533 8.204 8.756C8.204 9.32533 8.05467 9.82933 7.756 10.268C7.46667 10.7067 7.06067 11.052 6.538 11.304C6.02467 11.5467 5.42733 11.668 4.746 11.668ZM10.1288 11.5V0.902H11.4308V8.168L10.8988 8.042L14.9028 3.954H16.5688L13.6708 6.992L16.7648 11.5H15.2248L12.3968 7.412L13.2088 7.37L11.0108 9.666L11.4308 8.714V11.5H10.1288ZM18.0054 11.5V3.954H19.3074V11.5H18.0054ZM18.0054 2.75V1.07H19.3074V2.75H18.0054ZM21.3977 14.3V3.954H22.6717V5.578L22.5037 5.256C22.7837 4.808 23.1664 4.45333 23.6517 4.192C24.137 3.92133 24.6924 3.786 25.3177 3.786C26.027 3.786 26.6617 3.95867 27.2217 4.304C27.791 4.64933 28.239 5.12067 28.5657 5.718C28.8924 6.306 29.0557 6.978 29.0557 7.734C29.0557 8.47133 28.8924 9.13867 28.5657 9.736C28.239 10.3333 27.791 10.8047 27.2217 11.15C26.6617 11.4953 26.0224 11.668 25.3037 11.668C24.697 11.668 24.1417 11.5327 23.6377 11.262C23.143 10.9913 22.7604 10.6087 22.4897 10.114L22.6997 9.89V14.3H21.3977ZM25.2057 10.408C25.6817 10.408 26.1064 10.2913 26.4797 10.058C26.853 9.82467 27.1424 9.50733 27.3477 9.106C27.5624 8.69533 27.6697 8.238 27.6697 7.734C27.6697 7.21133 27.5624 6.754 27.3477 6.362C27.1424 5.96067 26.853 5.64333 26.4797 5.41C26.1064 5.16733 25.6817 5.046 25.2057 5.046C24.7297 5.046 24.3004 5.16267 23.9177 5.396C23.5444 5.62933 23.2457 5.95133 23.0217 6.362C22.807 6.76333 22.6997 7.22067 22.6997 7.734C22.6997 8.238 22.807 8.69533 23.0217 9.106C23.2457 9.50733 23.5444 9.82467 23.9177 10.058C24.3004 10.2913 24.7297 10.408 25.2057 10.408ZM34.1208 11.5V5.2H32.6788V3.954H34.1208V3.422C34.1208 2.88067 34.2375 2.42333 34.4708 2.05C34.7135 1.67667 35.0308 1.392 35.4228 1.196C35.8242 0.999999 36.2675 0.902 36.7528 0.902C36.8555 0.902 36.9675 0.911333 37.0888 0.929999C37.2195 0.939333 37.3268 0.953333 37.4108 0.972V2.134C37.3362 2.11533 37.2475 2.106 37.1448 2.106C37.0422 2.09667 36.9628 2.092 36.9068 2.092C36.4775 2.092 36.1228 2.19467 35.8428 2.4C35.5722 2.60533 35.4368 2.946 35.4368 3.422V3.954H37.2288V5.2H35.4368V11.5H34.1208ZM42.1858 11.668C41.4578 11.668 40.7998 11.5 40.2118 11.164C39.6238 10.8187 39.1572 10.3473 38.8118 9.75C38.4665 9.15267 38.2938 8.476 38.2938 7.72C38.2938 6.964 38.4618 6.292 38.7978 5.704C39.1432 5.116 39.6098 4.64933 40.1978 4.304C40.7858 3.95867 41.4485 3.786 42.1858 3.786C42.9138 3.786 43.5718 3.95867 44.1598 4.304C44.7478 4.64 45.2098 5.102 45.5458 5.69C45.8912 6.278 46.0638 6.95467 46.0638 7.72C46.0638 8.48533 45.8865 9.16667 45.5318 9.764C45.1772 10.352 44.7058 10.8187 44.1178 11.164C43.5392 11.5 42.8952 11.668 42.1858 11.668ZM42.1858 10.408C42.6525 10.408 43.0725 10.2913 43.4458 10.058C43.8285 9.82467 44.1272 9.50267 44.3418 9.092C44.5658 8.68133 44.6778 8.224 44.6778 7.72C44.6778 7.20667 44.5658 6.754 44.3418 6.362C44.1272 5.96067 43.8285 5.64333 43.4458 5.41C43.0725 5.16733 42.6525 5.046 42.1858 5.046C41.7098 5.046 41.2805 5.16733 40.8978 5.41C40.5245 5.64333 40.2258 5.96067 40.0018 6.362C39.7778 6.754 39.6658 7.20667 39.6658 7.72C39.6658 8.224 39.7778 8.68133 40.0018 9.092C40.2258 9.50267 40.5245 9.82467 40.8978 10.058C41.2805 10.2913 41.7098 10.408 42.1858 10.408ZM47.832 11.5V3.954H49.106V5.34L48.966 5.144C49.1433 4.71467 49.414 4.39733 49.778 4.192C50.142 3.97733 50.5853 3.87 51.108 3.87H51.57V5.102H50.912C50.38 5.102 49.9507 5.27 49.624 5.606C49.2973 5.93267 49.134 6.39933 49.134 7.006V11.5H47.832ZM55.2864 11.5V3.954H56.5604V5.424L56.3504 5.298C56.5371 4.822 56.8358 4.45333 57.2464 4.192C57.6664 3.92133 58.1564 3.786 58.7164 3.786C59.2578 3.786 59.7384 3.90733 60.1584 4.15C60.5878 4.39267 60.9238 4.72867 61.1664 5.158C61.4184 5.58733 61.5444 6.07267 61.5444 6.614V11.5H60.2284V7.034C60.2284 6.614 60.1538 6.25933 60.0044 5.97C59.8551 5.68067 59.6404 5.45667 59.3604 5.298C59.0898 5.13 58.7771 5.046 58.4224 5.046C58.0678 5.046 57.7504 5.13 57.4704 5.298C57.1998 5.45667 56.9851 5.68533 56.8264 5.984C56.6678 6.27333 56.5884 6.62333 56.5884 7.034V11.5H55.2864ZM67.0615 11.668C66.3335 11.668 65.6755 11.5 65.0875 11.164C64.4995 10.8187 64.0329 10.3473 63.6875 9.75C63.3422 9.15267 63.1695 8.476 63.1695 7.72C63.1695 6.964 63.3375 6.292 63.6735 5.704C64.0189 5.116 64.4855 4.64933 65.0735 4.304C65.6615 3.95867 66.3242 3.786 67.0615 3.786C67.7895 3.786 68.4475 3.95867 69.0355 4.304C69.6235 4.64 70.0855 5.102 70.4215 5.69C70.7669 6.278 70.9395 6.95467 70.9395 7.72C70.9395 8.48533 70.7622 9.16667 70.4075 9.764C70.0529 10.352 69.5815 10.8187 68.9935 11.164C68.4149 11.5 67.7709 11.668 67.0615 11.668ZM67.0615 10.408C67.5282 10.408 67.9482 10.2913 68.3215 10.058C68.7042 9.82467 69.0029 9.50267 69.2175 9.092C69.4415 8.68133 69.5535 8.224 69.5535 7.72C69.5535 7.20667 69.4415 6.754 69.2175 6.362C69.0029 5.96067 68.7042 5.64333 68.3215 5.41C67.9482 5.16733 67.5282 5.046 67.0615 5.046C66.5855 5.046 66.1562 5.16733 65.7735 5.41C65.4002 5.64333 65.1015 5.96067 64.8775 6.362C64.6535 6.754 64.5415 7.20667 64.5415 7.72C64.5415 8.224 64.6535 8.68133 64.8775 9.092C65.1015 9.50267 65.4002 9.82467 65.7735 10.058C66.1562 10.2913 66.5855 10.408 67.0615 10.408ZM74.307 11.5L71.717 3.954H73.159L75.217 10.268L74.713 10.254L76.729 3.954H77.961L79.977 10.254L79.473 10.268L81.545 3.954H82.973L80.383 11.5H79.137L77.149 5.2H77.541L75.553 11.5H74.307Z" fill="#21D4B4"/>
</svg>
