<svg width="32" height="32" viewBox="0 0 32 32" fill="none" xmlns="http://www.w3.org/2000/svg">
<path d="M20.0001 30.3337H12.0001C4.76008 30.3337 1.66675 27.2403 1.66675 20.0003V12.0003C1.66675 4.76033 4.76008 1.66699 12.0001 1.66699H20.0001C27.2401 1.66699 30.3334 4.76033 30.3334 12.0003V20.0003C30.3334 27.2403 27.2401 30.3337 20.0001 30.3337ZM12.0001 3.66699C5.85341 3.66699 3.66675 5.85366 3.66675 12.0003V20.0003C3.66675 26.147 5.85341 28.3337 12.0001 28.3337H20.0001C26.1467 28.3337 28.3334 26.147 28.3334 20.0003V12.0003C28.3334 5.85366 26.1467 3.66699 20.0001 3.66699H12.0001Z" fill="#1C1B1B"/>
</svg>
