<svg width="32" height="32" viewBox="0 0 32 32" fill="none" xmlns="http://www.w3.org/2000/svg">
<path d="M21.5867 2.66699H10.4134C5.56008 2.66699 2.66675 5.56033 2.66675 10.4137V21.5737C2.66675 26.4403 5.56008 29.3337 10.4134 29.3337H21.5734C26.4267 29.3337 29.3201 26.4403 29.3201 21.587V10.4137C29.3334 5.56033 26.4401 2.66699 21.5867 2.66699ZM22.3734 12.9337L14.8134 20.4937C14.6267 20.6803 14.3734 20.787 14.1067 20.787C13.8401 20.787 13.5867 20.6803 13.4001 20.4937L9.62675 16.7203C9.24008 16.3337 9.24008 15.6937 9.62675 15.307C10.0134 14.9203 10.6534 14.9203 11.0401 15.307L14.1067 18.3737L20.9601 11.5203C21.3467 11.1337 21.9867 11.1337 22.3734 11.5203C22.7601 11.907 22.7601 12.5337 22.3734 12.9337Z" fill="#1F8BDA"/>
</svg>
