<svg width="31" height="32" viewBox="0 0 31 32" fill="none" xmlns="http://www.w3.org/2000/svg">
<path fill-rule="evenodd" clip-rule="evenodd" d="M17.7566 19.3569C19.2034 17.9287 21.5491 17.9287 22.996 19.3569L29.4793 25.7569C30.9261 27.1851 30.9261 29.5006 29.4793 30.9288C28.0325 32.357 25.6868 32.357 24.24 30.9288L17.7566 24.5288C16.3098 23.1006 16.3098 20.7851 17.7566 19.3569Z" fill="#21D4B4"/>
<path d="M29.6382 14.6286C29.6382 22.7077 23.0035 29.2571 14.8191 29.2571C6.63474 29.2571 0 22.7077 0 14.6286C0 6.54943 6.63474 0 14.8191 0C23.0035 0 29.6382 6.54943 29.6382 14.6286ZM9.60228 14.6286C9.60228 17.4727 11.9379 19.7783 14.8191 19.7783C17.7003 19.7783 20.0359 17.4727 20.0359 14.6286C20.0359 11.7844 17.7003 9.47881 14.8191 9.47881C11.9379 9.47881 9.60228 11.7844 9.60228 14.6286Z" fill="#21D4B4"/>
</svg>
