<svg width="24" height="24" viewBox="0 0 24 24" fill="none" xmlns="http://www.w3.org/2000/svg">
<g filter="url(#filter0_b_604_158)">
<rect width="24" height="24" rx="12" fill="#1C1B1B"/>
<path d="M12 16.8248C11.845 16.8248 11.695 16.8048 11.57 16.7598C9.66 16.1048 6.625 13.7798 6.625 10.3448C6.625 8.5948 8.04 7.1748 9.78 7.1748C10.625 7.1748 11.415 7.5048 12 8.0948C12.585 7.5048 13.375 7.1748 14.22 7.1748C15.96 7.1748 17.375 8.5998 17.375 10.3448C17.375 13.7848 14.34 16.1048 12.43 16.7598C12.305 16.8048 12.155 16.8248 12 16.8248ZM9.78 7.9248C8.455 7.9248 7.375 9.0098 7.375 10.3448C7.375 13.7598 10.66 15.6598 11.815 16.0548C11.905 16.0848 12.1 16.0848 12.19 16.0548C13.34 15.6598 16.63 13.7648 16.63 10.3448C16.63 9.0098 15.55 7.9248 14.225 7.9248C13.465 7.9248 12.76 8.2798 12.305 8.8948C12.165 9.0848 11.845 9.0848 11.705 8.8948C11.24 8.2748 10.54 7.9248 9.78 7.9248Z" fill="white"/>
</g>
<defs>
<filter id="filter0_b_604_158" x="-4" y="-4" width="32" height="32" filterUnits="userSpaceOnUse" color-interpolation-filters="sRGB">
<feFlood flood-opacity="0" result="BackgroundImageFix"/>
<feGaussianBlur in="BackgroundImageFix" stdDeviation="2"/>
<feComposite in2="SourceAlpha" operator="in" result="effect1_backgroundBlur_604_158"/>
<feBlend mode="normal" in="SourceGraphic" in2="effect1_backgroundBlur_604_158" result="shape"/>
</filter>
</defs>
</svg>
