<svg width="47" height="40" viewBox="0 0 47 40" fill="none" xmlns="http://www.w3.org/2000/svg">
<path d="M27.69 3.59961C25.88 3.59961 24.26 4.47961 23.25 5.82961C22.24 4.47961 20.62 3.59961 18.81 3.59961C15.74 3.59961 13.25 6.09961 13.25 9.18961C13.25 10.3796 13.44 11.4796 13.77 12.4996C15.35 17.4996 20.22 20.4896 22.63 21.3096C22.97 21.4296 23.53 21.4296 23.87 21.3096C26.28 20.4896 31.15 17.4996 32.73 12.4996C33.06 11.4796 33.25 10.3796 33.25 9.18961C33.25 6.09961 30.76 3.59961 27.69 3.59961Z" fill="#21D4B4"/>
<path d="M2.842 36.5L0.382 27.56H1.882L3.874 35.3H3.502L5.566 27.56H7.042L9.106 35.3H8.722L10.726 27.56H12.214L9.766 36.5H8.17L6.094 28.88H6.514L4.426 36.5H2.842ZM13.1958 36.5V30.008H14.5518V36.5H13.1958ZM13.1958 29.12V27.56H14.5518V29.12H13.1958ZM18.5972 36.644C17.9332 36.644 17.3492 36.48 16.8452 36.152C16.3492 35.824 16.0012 35.384 15.8012 34.832L16.8452 34.34C17.0212 34.708 17.2612 35 17.5652 35.216C17.8772 35.432 18.2212 35.54 18.5972 35.54C18.9172 35.54 19.1772 35.468 19.3772 35.324C19.5772 35.18 19.6772 34.984 19.6772 34.736C19.6772 34.576 19.6332 34.448 19.5452 34.352C19.4572 34.248 19.3452 34.164 19.2092 34.1C19.0812 34.036 18.9492 33.988 18.8132 33.956L17.7932 33.668C17.2332 33.508 16.8132 33.268 16.5332 32.948C16.2612 32.62 16.1252 32.24 16.1252 31.808C16.1252 31.416 16.2252 31.076 16.4252 30.788C16.6252 30.492 16.9012 30.264 17.2532 30.104C17.6052 29.944 18.0012 29.864 18.4412 29.864C19.0332 29.864 19.5612 30.012 20.0252 30.308C20.4892 30.596 20.8172 31 21.0092 31.52L19.9652 32.012C19.8372 31.7 19.6332 31.452 19.3532 31.268C19.0812 31.084 18.7732 30.992 18.4292 30.992C18.1332 30.992 17.8972 31.064 17.7212 31.208C17.5452 31.344 17.4572 31.524 17.4572 31.748C17.4572 31.9 17.4972 32.028 17.5772 32.132C17.6572 32.228 17.7612 32.308 17.8892 32.372C18.0172 32.428 18.1492 32.476 18.2852 32.516L19.3412 32.828C19.8772 32.98 20.2892 33.22 20.5772 33.548C20.8652 33.868 21.0092 34.252 21.0092 34.7C21.0092 35.084 20.9052 35.424 20.6972 35.72C20.4972 36.008 20.2172 36.236 19.8572 36.404C19.4972 36.564 19.0772 36.644 18.5972 36.644ZM22.3978 36.5V27.416H23.7538V31.28L23.5378 31.112C23.6978 30.704 23.9538 30.396 24.3058 30.188C24.6578 29.972 25.0658 29.864 25.5298 29.864C26.0098 29.864 26.4338 29.968 26.8018 30.176C27.1698 30.384 27.4578 30.672 27.6658 31.04C27.8738 31.408 27.9778 31.828 27.9778 32.3V36.5H26.6338V32.672C26.6338 32.344 26.5698 32.068 26.4418 31.844C26.3218 31.612 26.1538 31.436 25.9378 31.316C25.7218 31.188 25.4738 31.124 25.1938 31.124C24.9218 31.124 24.6738 31.188 24.4498 31.316C24.2338 31.436 24.0618 31.612 23.9338 31.844C23.8138 32.076 23.7538 32.352 23.7538 32.672V36.5H22.3978ZM29.489 36.5V27.416H30.845V36.5H29.489ZM32.4904 36.5V30.008H33.8464V36.5H32.4904ZM32.4904 29.12V27.56H33.8464V29.12H32.4904ZM37.8918 36.644C37.2278 36.644 36.6438 36.48 36.1398 36.152C35.6438 35.824 35.2958 35.384 35.0958 34.832L36.1398 34.34C36.3158 34.708 36.5558 35 36.8598 35.216C37.1718 35.432 37.5158 35.54 37.8918 35.54C38.2118 35.54 38.4718 35.468 38.6718 35.324C38.8718 35.18 38.9718 34.984 38.9718 34.736C38.9718 34.576 38.9278 34.448 38.8398 34.352C38.7518 34.248 38.6398 34.164 38.5038 34.1C38.3758 34.036 38.2438 33.988 38.1078 33.956L37.0878 33.668C36.5278 33.508 36.1078 33.268 35.8278 32.948C35.5558 32.62 35.4198 32.24 35.4198 31.808C35.4198 31.416 35.5198 31.076 35.7198 30.788C35.9198 30.492 36.1958 30.264 36.5478 30.104C36.8998 29.944 37.2958 29.864 37.7358 29.864C38.3278 29.864 38.8558 30.012 39.3198 30.308C39.7838 30.596 40.1118 31 40.3038 31.52L39.2598 32.012C39.1318 31.7 38.9278 31.452 38.6478 31.268C38.3758 31.084 38.0678 30.992 37.7238 30.992C37.4278 30.992 37.1918 31.064 37.0158 31.208C36.8398 31.344 36.7518 31.524 36.7518 31.748C36.7518 31.9 36.7918 32.028 36.8718 32.132C36.9518 32.228 37.0558 32.308 37.1838 32.372C37.3118 32.428 37.4438 32.476 37.5798 32.516L38.6358 32.828C39.1718 32.98 39.5838 33.22 39.8718 33.548C40.1598 33.868 40.3038 34.252 40.3038 34.7C40.3038 35.084 40.1998 35.424 39.9918 35.72C39.7918 36.008 39.5118 36.236 39.1518 36.404C38.7918 36.564 38.3718 36.644 37.8918 36.644ZM44.5005 36.572C43.8205 36.572 43.2925 36.38 42.9165 35.996C42.5405 35.612 42.3525 35.072 42.3525 34.376V31.232H41.2125V30.008H41.3925C41.6965 30.008 41.9325 29.92 42.1005 29.744C42.2685 29.568 42.3525 29.328 42.3525 29.024V28.52H43.7085V30.008H45.1845V31.232H43.7085V34.316C43.7085 34.54 43.7445 34.732 43.8165 34.892C43.8885 35.044 44.0045 35.164 44.1645 35.252C44.3245 35.332 44.5325 35.372 44.7885 35.372C44.8525 35.372 44.9245 35.368 45.0045 35.36C45.0845 35.352 45.1605 35.344 45.2325 35.336V36.5C45.1205 36.516 44.9965 36.532 44.8605 36.548C44.7245 36.564 44.6045 36.572 44.5005 36.572Z" fill="#1C1B1B"/>
</svg>
