<?xml version="1.0" standalone="no"?>
<!DOCTYPE svg PUBLIC "-//W3C//DTD SVG 20010904//EN"
 "http://www.w3.org/TR/2001/REC-SVG-20010904/DTD/svg10.dtd">
<svg version="1.0" xmlns="http://www.w3.org/2000/svg"
 width="512.000000pt" height="512.000000pt" viewBox="0 0 512.000000 512.000000"
 preserveAspectRatio="xMidYMid meet">

<g transform="translate(0.000000,512.000000) scale(0.100000,-0.100000)"
fill="#000000" stroke="none">
<path d="M2415 4835 c-323 -61 -626 -270 -1410 -970 -341 -305 -415 -385 -495
-545 -122 -243 -156 -523 -147 -1224 6 -451 17 -608 63 -836 89 -451 283 -717
618 -850 263 -105 500 -129 1326 -137 842 -7 1210 11 1489 73 518 116 768 429
856 1072 52 380 57 1143 9 1483 -42 306 -127 489 -318 688 -163 169 -774 702
-1008 878 -412 311 -705 421 -983 368z m236 -309 c193 -41 423 -185 804 -502
218 -181 614 -534 717 -638 211 -214 256 -378 274 -1006 7 -253 -8 -674 -31
-861 -67 -538 -206 -752 -555 -852 -212 -61 -413 -77 -1095 -84 -598 -6 -1027
5 -1250 33 -487 60 -678 222 -775 654 -50 224 -70 490 -70 940 0 720 43 925
239 1141 112 123 723 661 976 858 196 153 370 256 505 299 109 35 162 39 261
18z"/>
</g>
</svg>
