<?xml version="1.0" standalone="no"?>
<!DOCTYPE svg PUBLIC "-//W3C//DTD SVG 20010904//EN"
 "http://www.w3.org/TR/2001/REC-SVG-20010904/DTD/svg10.dtd">
<svg version="1.0" xmlns="http://www.w3.org/2000/svg"
 width="512.000000pt" height="512.000000pt" viewBox="0 0 512.000000 512.000000"
 preserveAspectRatio="xMidYMid meet">

<g transform="translate(0.000000,512.000000) scale(0.100000,-0.100000)"
fill="#000000" stroke="none">
<path d="M162 4261 c-58 -15 -108 -56 -136 -112 -43 -88 -30 -176 39 -244 61
-61 85 -65 401 -65 161 0 295 -4 316 -10 41 -12 92 -50 109 -83 6 -11 161
-529 345 -1151 200 -677 347 -1157 366 -1196 45 -94 169 -215 268 -263 144
-70 81 -67 1240 -67 1161 0 1107 -3 1250 68 104 51 213 160 263 262 31 64 452
1379 488 1523 15 63 7 157 -21 232 -32 83 -140 192 -225 226 l-60 24 -1682 3
-1682 2 -22 73 c-91 307 -124 409 -152 462 -44 84 -163 201 -252 247 -129 67
-154 70 -505 74 -173 2 -330 -1 -348 -5z"/>
<path d="M2210 830 c-165 -61 -273 -200 -287 -371 -11 -124 38 -250 132 -338
213 -201 547 -140 676 124 32 67 34 75 34 180 0 103 -2 114 -32 177 -44 93
-109 160 -201 205 -68 34 -83 38 -171 40 -77 3 -107 -1 -151 -17z"/>
<path d="M3710 832 c-73 -24 -125 -59 -183 -121 -155 -166 -149 -420 14 -584
246 -246 659 -111 719 234 24 136 -26 275 -134 377 -84 78 -148 104 -271 109
-68 2 -104 -1 -145 -15z"/>
</g>
</svg>
