<svg width="32" height="32" viewBox="0 0 32 32" fill="none" xmlns="http://www.w3.org/2000/svg">
<g filter="url(#filter0_d_607_45)">
<path d="M15.9999 16.3299C13.6099 16.3299 11.6699 14.3899 11.6699 11.9999C11.6699 9.60992 13.6099 7.66992 15.9999 7.66992C18.3899 7.66992 20.3299 9.60992 20.3299 11.9999C20.3299 14.3899 18.3899 16.3299 15.9999 16.3299ZM15.9999 9.16992C14.4399 9.16992 13.1699 10.4399 13.1699 11.9999C13.1699 13.5599 14.4399 14.8299 15.9999 14.8299C17.5599 14.8299 18.8299 13.5599 18.8299 11.9999C18.8299 10.4399 17.5599 9.16992 15.9999 9.16992Z" fill="#1C1B1B"/>
<path d="M16.0001 21.0205C12.2401 21.0205 8.69008 18.8205 6.25008 15.0005C5.19008 13.3505 5.19008 10.6605 6.25008 9.00047C8.70008 5.18047 12.2501 2.98047 16.0001 2.98047C19.7501 2.98047 23.3001 5.18047 25.7401 9.00047C26.8001 10.6505 26.8001 13.3405 25.7401 15.0005C23.3001 18.8205 19.7501 21.0205 16.0001 21.0205ZM16.0001 4.48047C12.7701 4.48047 9.68008 6.42047 7.52008 9.81047C6.77008 10.9805 6.77008 13.0205 7.52008 14.1905C9.68008 17.5805 12.7701 19.5205 16.0001 19.5205C19.2301 19.5205 22.3201 17.5805 24.4801 14.1905C25.2301 13.0205 25.2301 10.9805 24.4801 9.81047C22.3201 6.42047 19.2301 4.48047 16.0001 4.48047Z" fill="#1C1B1B"/>
</g>
<defs>
<filter id="filter0_d_607_45" x="0" y="0" width="32" height="32" filterUnits="userSpaceOnUse" color-interpolation-filters="sRGB">
<feFlood flood-opacity="0" result="BackgroundImageFix"/>
<feColorMatrix in="SourceAlpha" type="matrix" values="0 0 0 0 0 0 0 0 0 0 0 0 0 0 0 0 0 0 127 0" result="hardAlpha"/>
<feOffset dy="4"/>
<feGaussianBlur stdDeviation="2"/>
<feComposite in2="hardAlpha" operator="out"/>
<feColorMatrix type="matrix" values="0 0 0 0 0 0 0 0 0 0 0 0 0 0 0 0 0 0 0.25 0"/>
<feBlend mode="normal" in2="BackgroundImageFix" result="effect1_dropShadow_607_45"/>
<feBlend mode="normal" in="SourceGraphic" in2="effect1_dropShadow_607_45" result="shape"/>
</filter>
</defs>
</svg>
