<svg width="104" height="32" viewBox="0 0 104 32" fill="none" xmlns="http://www.w3.org/2000/svg">
<path fill-rule="evenodd" clip-rule="evenodd" d="M17.7566 19.3569C19.2034 17.9287 21.5491 17.9287 22.996 19.3569L29.4793 25.7569C30.9261 27.1851 30.9261 29.5006 29.4793 30.9288C28.0325 32.357 25.6868 32.357 24.24 30.9288L17.7566 24.5288C16.3098 23.1006 16.3098 20.7851 17.7566 19.3569Z" fill="#21D4B4"/>
<path d="M29.6382 14.6286C29.6382 22.7077 23.0035 29.2571 14.8191 29.2571C6.63474 29.2571 0 22.7077 0 14.6286C0 6.54943 6.63474 0 14.8191 0C23.0035 0 29.6382 6.54943 29.6382 14.6286ZM9.60228 14.6286C9.60228 17.4727 11.9379 19.7783 14.8191 19.7783C17.7003 19.7783 20.0359 17.4727 20.0359 14.6286C20.0359 11.7844 17.7003 9.47881 14.8191 9.47881C11.9379 9.47881 9.60228 11.7844 9.60228 14.6286Z" fill="#21D4B4"/>
<path d="M35.0193 21.9892C34.284 21.9892 33.6546 21.8428 33.131 21.5501C32.6186 21.2469 32.2287 20.8287 31.9613 20.2955C31.6939 19.7623 31.5602 19.1402 31.5602 18.4292V13.2383H34.0668V18.241C34.0668 18.5651 34.1336 18.8527 34.2673 19.1036C34.4121 19.3441 34.6126 19.5322 34.8689 19.6682C35.1251 19.8041 35.4147 19.872 35.7378 19.872C36.072 19.872 36.3616 19.8041 36.6067 19.6682C36.863 19.5322 37.0579 19.3441 37.1916 19.1036C37.3364 18.8527 37.4088 18.5651 37.4088 18.241V13.2383H39.9154V21.801H37.5759V20.1073L37.7096 20.4837C37.4979 20.996 37.1526 21.3776 36.6736 21.6285C36.2057 21.869 35.6542 21.9892 35.0193 21.9892Z" fill="#1C1B1B"/>
<path d="M41.8309 21.801V13.2383H44.3374V21.801H41.8309ZM41.8309 12.4698V10.1174H44.3374V12.4698H41.8309Z" fill="#1C1B1B"/>
<path d="M50.7335 21.9892C49.82 21.9892 48.9957 21.7958 48.2604 21.4089C47.5363 21.0116 46.957 20.4732 46.5226 19.7936C46.0992 19.114 45.8876 18.3508 45.8876 17.5039C45.8876 16.6571 46.0992 15.8991 46.5226 15.23C46.9459 14.5504 47.5252 14.0172 48.2604 13.6303C48.9957 13.2435 49.82 13.0501 50.7335 13.0501C51.4131 13.0501 52.0425 13.1598 52.6218 13.3794C53.2011 13.599 53.6968 13.9074 54.109 14.3047C54.5212 14.6915 54.8164 15.1515 54.9946 15.6848L52.8223 16.563C52.6663 16.1343 52.399 15.7945 52.0202 15.5436C51.6526 15.2927 51.2237 15.1672 50.7335 15.1672C50.2991 15.1672 49.9092 15.2665 49.5638 15.4652C49.2296 15.6638 48.9622 15.9409 48.7617 16.2964C48.5723 16.6519 48.4776 17.0596 48.4776 17.5196C48.4776 17.9797 48.5723 18.3874 48.7617 18.7429C48.9622 19.0984 49.2296 19.3754 49.5638 19.5741C49.9092 19.7727 50.2991 19.872 50.7335 19.872C51.2348 19.872 51.6693 19.7466 52.0369 19.4957C52.4045 19.2447 52.6663 18.9049 52.8223 18.4763L54.9946 19.3702C54.8275 19.872 54.5379 20.3216 54.1257 20.7189C53.7135 21.1162 53.2178 21.4299 52.6385 21.6599C52.0592 21.8794 51.4242 21.9892 50.7335 21.9892Z" fill="#1C1B1B"/>
<path d="M56.5542 21.801V9.9292H59.0607V17.5353L58.1249 17.253L62.1521 13.2383H65.2435L61.9349 16.6884L65.2268 21.801H62.386L59.6288 17.4569L61.0826 17.1119L58.292 19.9661L59.0607 18.6017V21.801H56.5542Z" fill="#1C1B1B"/>
<path d="M66.6127 21.801V10.1174H69.1192L73.7814 15.92H72.6116L77.1401 10.1174H79.6467V21.801H77.0566V12.7991L78.0926 13.0187L73.2968 18.8213H72.9626L68.3338 13.0187L69.2028 12.7991V21.801H66.6127Z" fill="#1C1B1B"/>
<path d="M84.578 21.9892C83.9207 21.9892 83.3526 21.8899 82.8736 21.6912C82.3945 21.4926 82.0269 21.2103 81.7707 20.8444C81.5145 20.468 81.3863 20.0236 81.3863 19.5113C81.3863 19.0304 81.5033 18.607 81.7373 18.241C81.9712 17.8646 82.3277 17.551 82.8067 17.3001C83.2969 17.0491 83.904 16.8714 84.6281 16.7669L87.4187 16.3434V18.0685L85.0793 18.4606C84.7228 18.5233 84.4499 18.6331 84.2605 18.7899C84.0711 18.9363 83.9764 19.1506 83.9764 19.4329C83.9764 19.6943 84.0823 19.8982 84.2939 20.0445C84.5056 20.1909 84.7674 20.2641 85.0793 20.2641C85.4915 20.2641 85.8535 20.1805 86.1655 20.0132C86.4774 19.8459 86.7169 19.6211 86.884 19.3388C87.0622 19.0461 87.1514 18.7272 87.1514 18.3822V16.1552C87.1514 15.8311 87.0121 15.5593 86.7336 15.3397C86.4662 15.1202 86.0986 15.0104 85.6307 15.0104C85.1851 15.0104 84.7897 15.1254 84.4443 15.3554C84.1101 15.5854 83.865 15.8886 83.7091 16.265L81.7038 15.3711C81.8821 14.8902 82.1662 14.4772 82.5561 14.1322C82.946 13.7871 83.4138 13.5205 83.9597 13.3323C84.5056 13.1442 85.1016 13.0501 85.7477 13.0501C86.5164 13.0501 87.1959 13.1807 87.7864 13.4421C88.3768 13.7035 88.8335 14.0694 89.1566 14.5399C89.4908 14.9999 89.6579 15.5384 89.6579 16.1552V21.801H87.3185V20.4209L87.8866 20.3268C87.6193 20.7032 87.324 21.0169 87.001 21.2678C86.6779 21.5083 86.3159 21.686 85.9148 21.801C85.5138 21.9265 85.0682 21.9892 84.578 21.9892Z" fill="#1C1B1B"/>
<path d="M91.5797 21.801V13.2383H93.9191V15.2927L93.752 14.9947C93.9526 14.2733 94.2812 13.7871 94.7379 13.5362C95.2058 13.2748 95.7573 13.1442 96.3923 13.1442H96.927V15.1829H96.1416C95.5289 15.1829 95.0332 15.3606 94.6544 15.7161C94.2756 16.0611 94.0862 16.5525 94.0862 17.1903V21.801H91.5797Z" fill="#1C1B1B"/>
<path d="M102.83 21.8951C101.727 21.8951 100.87 21.618 100.257 21.0639C99.6553 20.4993 99.3545 19.7152 99.3545 18.7115V15.277H97.8172V13.2383H97.9007C98.3686 13.2383 98.7251 13.1285 98.9702 12.9089C99.2264 12.6894 99.3545 12.36 99.3545 11.9209V11.2936H101.861V13.2383H104V15.277H101.861V18.5547C101.861 18.8474 101.917 19.0931 102.028 19.2918C102.14 19.48 102.312 19.6211 102.546 19.7152C102.78 19.8093 103.07 19.8564 103.415 19.8564C103.493 19.8564 103.582 19.8511 103.682 19.8407C103.783 19.8302 103.889 19.8198 104 19.8093V21.801C103.833 21.8219 103.643 21.8428 103.432 21.8637C103.22 21.8846 103.02 21.8951 102.83 21.8951Z" fill="#1C1B1B"/>
</svg>
